<svg width="69" height="85" viewBox="0 0 69 85" fill="none" xmlns="http://www.w3.org/2000/svg">
<g filter="url(#filter0_d_71_15)">
<path d="M54.625 5.75C55.3875 5.75 56.1188 6.0529 56.6579 6.59207C57.1971 7.13123 57.5 7.8625 57.5 8.625V60.375C57.5 61.1375 57.1971 61.8688 56.6579 62.4079C56.1188 62.9471 55.3875 63.25 54.625 63.25H14.375C13.6125 63.25 12.8812 62.9471 12.3421 62.4079C11.8029 61.8688 11.5 61.1375 11.5 60.375V8.625C11.5 7.8625 11.8029 7.13123 12.3421 6.59207C12.8812 6.0529 13.6125 5.75 14.375 5.75H54.625ZM34.5 20.125C32.4973 20.1272 30.5171 20.5478 28.6864 21.3599C26.8558 22.172 25.215 23.3577 23.8693 24.841C22.5236 26.3242 21.5027 28.0723 20.872 29.9731C20.2413 31.8739 20.0148 33.8855 20.2069 35.879C20.399 37.8725 21.0056 39.8038 21.9877 41.5492C22.9698 43.2946 24.3057 44.8155 25.9099 46.0145C27.5141 47.2134 29.3512 48.0639 31.3032 48.5115C33.2553 48.959 35.2794 48.9937 37.2456 48.6134L34.5 43.125C32.2125 43.125 30.0187 42.2163 28.4012 40.5988C26.7837 38.9813 25.875 36.7875 25.875 34.5C25.875 32.2125 26.7837 30.0187 28.4012 28.4012C30.0187 26.7837 32.2125 25.875 34.5 25.875C39.0942 25.875 43.125 29.7275 43.125 34.5H35.9375L42.0555 46.7302C44.7168 45.0865 46.7694 42.6195 47.9017 39.7036C49.034 36.7877 49.1843 33.582 48.3298 30.573C47.4753 27.5639 45.6626 24.9157 43.1667 23.0302C40.6708 21.1446 37.628 20.1247 34.5 20.125Z" fill="#FFD233"/>
</g>
<defs>
<filter id="filter0_d_71_15" x="-5" y="0" width="79" height="90" filterUnits="userSpaceOnUse" color-interpolation-filters="sRGB">
<feFlood flood-opacity="0" result="BackgroundImageFix"/>
<feColorMatrix in="SourceAlpha" type="matrix" values="0 0 0 0 0 0 0 0 0 0 0 0 0 0 0 0 0 0 127 0" result="hardAlpha"/>
<feOffset dy="16"/>
<feGaussianBlur stdDeviation="2.5"/>
<feColorMatrix type="matrix" values="0 0 0 0 1 0 0 0 0 0.823529 0 0 0 0 0.2 0 0 0 0.5 0"/>
<feBlend mode="normal" in2="BackgroundImageFix" result="effect1_dropShadow_71_15"/>
<feBlend mode="normal" in="SourceGraphic" in2="effect1_dropShadow_71_15" result="shape"/>
</filter>
</defs>
</svg>
