<svg width="88" height="109" viewBox="0 0 88 109" fill="none" xmlns="http://www.w3.org/2000/svg">
<g filter="url(#filter0_d_71_12)">
<path d="M66.1667 9.5H21.8333C18.3183 9.5 15.5 12.3183 15.5 15.8333V60.1667C15.5 61.8464 16.1673 63.4573 17.355 64.645C18.5427 65.8327 20.1536 66.5 21.8333 66.5H66.1667C69.6817 66.5 72.5 63.6817 72.5 60.1667V15.8333C72.5 14.1536 71.8327 12.5427 70.645 11.355C69.4573 10.1673 67.8464 9.5 66.1667 9.5ZM56.9833 50.35C53.7217 50.35 50.6183 49.0833 48.275 46.74L46.2483 44.7133L50.745 40.2483L52.74 42.2433C53.5796 43.0849 54.65 43.6585 55.8157 43.8915C56.9815 44.1244 58.1901 44.0062 59.2887 43.5519C60.3872 43.0976 61.3263 42.3275 61.9869 41.3392C62.6476 40.3509 63.0002 39.1888 63 38C63 36.4043 62.3661 34.8739 61.2378 33.7456C60.1094 32.6172 58.5791 31.9833 56.9833 31.9833C55.4 31.9833 53.88 32.6167 52.74 33.7567L39.725 46.74C38.5858 47.8896 37.229 48.8009 35.7339 49.4207C34.2387 50.0405 32.6352 50.3564 31.0167 50.35C24.2083 50.35 18.6667 44.8083 18.6667 38C18.6667 31.1917 24.2083 25.65 31.0167 25.65C34.31 25.65 37.3817 26.9167 39.725 29.26L41.7517 31.2867L37.255 35.7833L35.26 33.7567C34.12 32.6167 32.6 31.9833 31.0167 31.9833C29.4209 31.9833 27.8906 32.6172 26.7622 33.7456C25.6339 34.8739 25 36.4043 25 38C25 39.5957 25.6339 41.1261 26.7622 42.2544C27.8906 43.3828 29.4209 44.0167 31.0167 44.0167C32.6 44.0167 34.12 43.3833 35.26 42.2433L48.275 29.26C49.4142 28.1104 50.771 27.1991 52.2661 26.5793C53.7613 25.9595 55.3648 25.6436 56.9833 25.65C63.7917 25.65 69.3333 31.1917 69.3333 38C69.3333 44.8083 63.7917 50.35 56.9833 50.35Z" fill="#0FA958"/>
</g>
<defs>
<filter id="filter0_d_71_12" x="-9" y="0" width="106" height="118" filterUnits="userSpaceOnUse" color-interpolation-filters="sRGB">
<feFlood flood-opacity="0" result="BackgroundImageFix"/>
<feColorMatrix in="SourceAlpha" type="matrix" values="0 0 0 0 0 0 0 0 0 0 0 0 0 0 0 0 0 0 127 0" result="hardAlpha"/>
<feOffset dy="27"/>
<feGaussianBlur stdDeviation="7.5"/>
<feColorMatrix type="matrix" values="0 0 0 0 0.0588235 0 0 0 0 0.662745 0 0 0 0 0.345098 0 0 0 0.5 0"/>
<feBlend mode="normal" in2="BackgroundImageFix" result="effect1_dropShadow_71_12"/>
<feBlend mode="normal" in="SourceGraphic" in2="effect1_dropShadow_71_12" result="shape"/>
</filter>
</defs>
</svg>
