<svg width="118" height="104" viewBox="0 0 118 104" fill="none" xmlns="http://www.w3.org/2000/svg">
<g clip-path="url(#clip0_71_27)" filter="url(#filter0_d_71_27)">
<path d="M45.4713 82.7667C33.0737 81.6834 22.1363 77.0814 15.008 69.966C10.952 65.91 8.49066 61.5074 7.38133 56.3204C6.86999 53.963 6.87433 50.0457 7.38133 47.6667C8.92833 40.456 13.591 34.1467 20.9273 29.3367C37.6627 18.3604 63.2987 18.4167 79.878 29.4667C82.0793 30.9314 83.5007 32.097 85.494 34.06C88.0073 36.543 89.7753 39.0087 91.6387 42.64C91.708 42.77 92.0503 42.9434 92.4013 43.0127C93.5713 43.2554 95.1443 44.174 96.4053 45.3527C97.3847 46.2627 98.143 47.2594 100.011 50.089C101.896 52.9404 110.428 66.1094 110.948 66.9717C111.147 67.3097 110.749 67.847 110.298 67.847C109.982 67.847 109.752 67.6304 109.284 66.8937L104.448 59.3884C96.2147 46.6397 95.7683 46.0504 93.476 44.902L92.2713 44.2954H88.731C85.195 44.2954 85.1907 44.2997 85.104 44.6724C84.636 46.709 84.5493 47.2117 84.6533 47.307C84.7183 47.3677 86.7247 48.5117 89.1167 49.8464L93.4587 52.2817L93.19 52.8494C93.0383 53.1614 92.8693 53.4214 92.8087 53.4214C92.748 53.4214 89.0907 51.3934 84.6837 48.919C80.2723 46.449 76.407 44.3517 76.095 44.265C74.8383 43.9184 72.9143 45.305 72.9143 46.5574C72.9143 47.8227 73.2913 48.1954 81.035 54.535C85.8667 58.4957 88.6313 60.8703 89.0517 61.4337C89.823 62.4564 90.5987 63.9644 91.318 65.819C92.5747 69.0864 94.6243 70.9063 97.9827 71.747L99.0877 72.0244L98.9967 72.631C98.9709 72.8634 98.9171 73.0919 98.8363 73.3113C98.6933 73.4717 96.466 72.761 95.179 72.1414C93.164 71.175 91.7773 69.797 90.4167 67.4007C89.8242 67.5789 89.2387 67.7798 88.6617 68.003C86.9673 68.6184 86.885 68.6704 85.2817 70.2347C78.4523 76.8994 68.659 81.159 56.829 82.6063C54.9093 82.8447 47.5123 82.9487 45.4713 82.7667ZM57.245 80.717C62.6703 79.9977 66.878 78.923 71.285 77.1204C75.9087 75.2267 80.268 72.5053 83.3187 69.6107L84.519 68.4667L81.4943 67.0237C78.2617 65.4767 77.941 65.221 77.5293 63.8387C77.2693 62.972 77.564 62.0404 78.3873 61.1477L79.033 60.45L77.629 59.384C76.5197 58.539 76.173 58.1707 75.9563 57.6073C75.7861 57.1692 75.7283 56.6954 75.7881 56.2292C75.8479 55.7629 76.0234 55.3191 76.2987 54.938L76.7233 54.34L72.2903 53.56C70.599 53.2776 68.9144 52.9569 67.2377 52.598C66.8693 52.455 66.5399 52.227 66.2763 51.9325C66.0128 51.6381 65.8225 51.2856 65.721 50.9037C65.6257 50.505 67.801 39.897 68.2863 38.3804C68.4558 37.9901 68.709 37.6419 69.028 37.3603C69.347 37.0787 69.724 36.8707 70.1323 36.751C70.8647 36.6167 83.934 38.9134 84.584 39.2947C85.6153 39.8927 85.9403 40.8634 85.6153 42.3497L85.4767 42.9737H86.2003C86.599 42.9737 87.5437 42.9217 88.2933 42.8654L89.6627 42.757L88.9823 41.5004C86.9283 37.6784 83.219 33.839 78.6343 30.7884C76.4937 29.367 71.9307 27.118 69.1833 26.1344C64.9153 24.6553 60.4904 23.6753 55.997 23.2137C53.5053 22.9537 46.975 22.9537 44.557 23.218C38.7547 23.8507 33.4897 25.1637 28.8833 27.1267C18.2233 31.6724 11.0517 39.1994 9.21866 47.7837C8.74199 50.024 8.69866 53.95 9.14066 55.991C10.1113 60.4977 12.2303 64.402 15.6797 68.0377C22.6997 75.4347 33.4333 79.9804 46.299 81.0117C48.0193 81.146 55.49 80.9467 57.245 80.717ZM54.892 72.6397C54.229 72.449 53.5573 71.656 53.4187 70.9064C53.3233 70.4124 53.436 70.0744 54.138 68.7137C56.9807 63.2104 58.2157 58.1534 58.2157 52.0087C58.2157 46.072 57.1237 41.457 54.4067 35.919C53.8217 34.7317 53.345 33.6267 53.345 33.4707C53.345 32.8814 53.839 32.0277 54.372 31.694C55.1043 31.2304 56.3307 31.317 56.92 31.8674C57.1453 32.084 57.7303 33.0417 58.22 34.008C60.1657 37.8214 61.496 42.0117 62.1547 46.371C62.562 49.0707 62.6443 54.184 62.3193 56.654C61.7731 61.0311 60.5142 65.2892 58.5927 69.2597C57.4227 71.6647 56.6947 72.657 56.0793 72.657C55.9313 72.6607 55.7843 72.6825 55.6417 72.722C55.3888 72.7471 55.1334 72.719 54.892 72.6397ZM46.9793 68.5014C45.9653 68.2024 45.2287 66.9543 45.5233 66.0183C45.597 65.793 46.0737 64.7487 46.5893 63.7C48.7367 59.41 49.6503 54.6079 49.2283 49.829C48.8643 45.9897 48.1753 43.5674 46.442 40.0227C45.2763 37.6437 45.2243 37.2754 45.9003 36.322C46.5417 35.412 48.1493 35.2604 48.99 36.036C49.575 36.5734 51.395 40.3694 52.0927 42.5187C54.4139 49.6449 54.0565 57.3731 51.0873 64.2547C49.562 67.834 48.4917 68.939 46.9793 68.5014ZM38.824 64.3023C38.4994 64.1448 38.2132 63.9181 37.9856 63.6381C37.758 63.3581 37.5945 63.0316 37.5067 62.6817C37.4157 62.2744 37.5673 61.8237 38.317 60.3114C41.0557 54.7647 41.086 49.4174 38.4037 43.9964C37.2293 41.613 37.2033 41.1407 38.2 40.2004C38.6897 39.7367 38.8977 39.6544 39.5867 39.6544C40.7437 39.6544 41.346 40.2394 42.3773 42.3627C43.9677 45.63 44.622 48.464 44.6133 52.0954C44.6133 55.822 44.0023 58.3874 42.3037 61.8324C41.3287 63.804 40.8477 64.324 39.877 64.4584C39.5186 64.4904 39.1577 64.4369 38.824 64.3023ZM31.2103 60.3937C30.6216 60.0821 30.1772 59.5537 29.971 58.9204C29.7847 58.2617 29.9363 57.7374 30.686 56.5067C31.648 54.925 31.8733 54.08 31.8733 52.0087C31.8733 49.9417 31.648 49.0924 30.686 47.5107C30.4008 47.0584 30.1572 46.5812 29.958 46.085C29.6503 45.045 30.517 43.7667 31.6827 43.5457C32.6707 43.3594 33.351 43.8057 34.261 45.2227C35.5502 47.2696 36.2343 49.6394 36.2343 52.0585C36.2343 54.4776 35.5502 56.8474 34.261 58.8943C33.3293 60.333 32.2937 60.8444 31.2103 60.3937ZM87.9337 66.7767C88.8133 66.4604 89.576 66.1657 89.6237 66.1137C89.6757 66.066 89.5067 65.5027 89.2467 64.8614C88.718 63.5527 88.8047 63.583 86.9327 63.9427C84.9047 64.3327 83.7303 63.986 81.516 62.3567C80.9093 61.9104 80.2897 61.5464 80.1293 61.5464C79.9733 61.5464 79.631 61.776 79.3623 62.062C78.799 62.6687 78.7123 63.622 79.1717 64.1854C79.5747 64.675 85.1387 67.3227 85.8017 67.3357C86.092 67.3443 87.054 67.093 87.9337 66.7767ZM87.0583 62.517C87.8817 62.3524 87.9727 62.296 87.8297 62.0317C87.6737 61.737 79.9777 55.3497 79.3103 54.9597C78.76 54.639 78.3137 54.7127 77.8587 55.2024C76.5197 56.6324 76.6757 56.9357 80.138 59.592C84.3153 62.79 84.7573 62.9807 87.0583 62.517ZM76.7277 52.8494C76.7277 52.806 75.8567 52.0564 74.7863 51.181C72.1516 49.01 71.5883 48.1997 71.5883 46.5964C71.5883 45.253 72.481 43.9617 73.9197 43.2164C74.7698 42.8349 75.7229 42.748 76.628 42.9694C77.1393 43.134 79.436 44.3777 82.621 46.2107L83.2927 46.5964L83.8473 43.9704C84.4107 41.2837 84.4237 40.5817 83.8993 40.417C81.6283 39.9824 79.3532 39.5692 77.0743 39.1777C70.6913 38.051 69.9937 37.986 69.699 38.467C69.5387 38.727 67.112 49.9764 67.112 50.4574C67.112 50.6957 67.2333 50.9947 67.3807 51.116C67.528 51.2417 69.5993 51.688 71.9827 52.1127C76.5847 52.9404 76.7277 52.962 76.7277 52.8494Z" fill="#F24E1E"/>
</g>
<defs>
<filter id="filter0_d_71_27" x="0" y="0" width="118" height="119" filterUnits="userSpaceOnUse" color-interpolation-filters="sRGB">
<feFlood flood-opacity="0" result="BackgroundImageFix"/>
<feColorMatrix in="SourceAlpha" type="matrix" values="0 0 0 0 0 0 0 0 0 0 0 0 0 0 0 0 0 0 127 0" result="hardAlpha"/>
<feOffset dy="8"/>
<feGaussianBlur stdDeviation="3.5"/>
<feColorMatrix type="matrix" values="0 0 0 0 0.94902 0 0 0 0 0.305882 0 0 0 0 0.117647 0 0 0 1 0"/>
<feBlend mode="normal" in2="BackgroundImageFix" result="effect1_dropShadow_71_27"/>
<feBlend mode="normal" in="SourceGraphic" in2="effect1_dropShadow_71_27" result="shape"/>
</filter>
<clipPath id="clip0_71_27">
<rect width="104" height="104" fill="white" transform="translate(7)"/>
</clipPath>
</defs>
</svg>
