<svg width="66" height="73" viewBox="0 0 66 73" fill="none" xmlns="http://www.w3.org/2000/svg">
<g filter="url(#filter0_d_69_2)">
<path d="M42.0416 10.3334L57.4125 12.4L44.7541 25.0584L42.0416 10.3334ZM23.9583 51.6667L8.58746 49.6L21.2458 36.9417L23.9583 51.6667ZM12.3333 21.9584L14.4 6.58752L27.0583 19.2459L12.3333 21.9584Z" fill="#9C27B0"/>
<path d="M14.0125 27.3833L8.58748 28.4167C8.45831 29.3208 8.45831 30.0958 8.45831 31C8.45831 36.9417 10.525 42.625 14.4 47.0167L18.275 43.6583C15.3041 40.1708 13.625 35.65 13.625 31C13.625 29.8375 13.7541 28.5458 14.0125 27.3833ZM33 6.45834C26.025 6.45834 19.825 9.42918 15.3041 14.0792L18.9208 17.6958C22.5375 13.95 27.4458 11.625 33 11.625C34.1625 11.625 35.4541 11.7542 36.6166 12.0125L37.5208 6.97501C36.1 6.58751 34.55 6.45834 33 6.45834ZM51.9875 34.6167L57.4125 33.5833C57.5416 32.6792 57.5416 31.9042 57.5416 31C57.5416 25.3167 55.6041 19.7625 51.9875 15.3708L47.9833 18.6C50.825 22.0875 52.375 26.4792 52.375 30.8708C52.375 32.1625 52.2458 33.4542 51.9875 34.6167ZM47.0791 44.3042C43.4625 48.05 38.5541 50.375 33 50.375C31.8375 50.375 30.5458 50.2458 29.3833 49.9875L28.4791 55.025C30.0291 55.2833 31.5791 55.4125 33 55.4125C39.975 55.4125 46.175 52.4417 50.6958 47.7917L47.0791 44.3042Z" fill="#9C27B0"/>
<path d="M53.6666 40.0417L51.6 55.4125L38.9417 42.7542L53.6666 40.0417Z" fill="#9C27B0"/>
</g>
<defs>
<filter id="filter0_d_69_2" x="-6" y="0" width="78" height="79" filterUnits="userSpaceOnUse" color-interpolation-filters="sRGB">
<feFlood flood-opacity="0" result="BackgroundImageFix"/>
<feColorMatrix in="SourceAlpha" type="matrix" values="0 0 0 0 0 0 0 0 0 0 0 0 0 0 0 0 0 0 127 0" result="hardAlpha"/>
<feOffset dy="9"/>
<feGaussianBlur stdDeviation="4"/>
<feColorMatrix type="matrix" values="0 0 0 0 0.67451 0 0 0 0 0.286275 0 0 0 0 0.737255 0 0 0 1 0"/>
<feBlend mode="multiply" in2="BackgroundImageFix" result="effect1_dropShadow_69_2"/>
<feBlend mode="normal" in="SourceGraphic" in2="effect1_dropShadow_69_2" result="shape"/>
</filter>
</defs>
</svg>
