<svg width="491" height="531" viewBox="0 0 491 531" fill="none" xmlns="http://www.w3.org/2000/svg">
<g clip-path="url(#clip0_109_3)">
<path d="M113.375 274.487C113.375 274.487 111.222 274.695 110.458 273.7C110.458 273.7 117.01 269.245 119.8 262.986C121.918 262.326 123.712 261.273 123.712 259.665V237.115H134.131V259.665C134.131 265.936 129.952 270.807 122.647 273.052C119.636 273.947 116.516 274.43 113.375 274.487Z" fill="#E9EEF8"/>
<path d="M129.396 247.528L165.676 268.47C167.887 269.743 171.788 269.627 174.346 268.111C176.893 266.642 177.171 264.386 174.96 263.113L138.68 242.171C136.469 240.898 132.568 241.014 130.01 242.53C127.463 244.011 127.185 246.255 129.396 247.528Z" fill="#E9EEF8"/>
<path d="M117.612 295.394V360.465C117.612 362.432 120.598 364.018 124.291 364.018C127.984 364.018 130.971 362.432 130.971 360.465V295.394H117.612Z" fill="#CCD7EE"/>
<path d="M124.268 291.923C120.575 291.923 117.589 293.508 117.589 295.475C117.589 297.442 120.575 299.027 124.268 299.027C127.961 299.027 130.947 297.431 130.947 295.475C130.947 293.52 127.961 291.923 124.268 291.923Z" fill="#BBC7E6"/>
<path d="M150.592 358.059C150.614 356.603 150.978 355.173 151.653 353.883C152.329 352.593 153.298 351.479 154.482 350.631C155.001 350.334 155.586 350.171 156.183 350.156C157.062 350.147 157.925 350.388 158.672 350.851C159.061 351.146 159.385 351.518 159.624 351.944C159.863 352.37 160.012 352.841 160.061 353.327L155.697 362.294C155.243 362.492 154.751 362.585 154.256 362.567C153.761 362.549 153.276 362.42 152.838 362.189C152.129 361.768 151.545 361.165 151.148 360.442C151.027 360.199 150.923 359.948 150.835 359.69C150.664 359.164 150.582 358.612 150.592 358.059Z" fill="#333067"/>
<path d="M160.189 354.576C160.171 356.033 159.81 357.465 159.134 358.756C158.458 360.046 157.487 361.159 156.299 362.004C154.158 363.242 152.41 361.935 152.41 359.065C152.435 357.61 152.799 356.181 153.475 354.891C154.15 353.602 155.117 352.487 156.299 351.637C158.452 350.399 160.189 351.718 160.189 354.576Z" fill="#504384"/>
<path d="M158.707 355.71C158.696 356.508 158.498 357.293 158.128 358C157.758 358.708 157.227 359.318 156.577 359.783C155.419 360.454 154.447 359.783 154.447 358.175C154.458 357.376 154.656 356.592 155.026 355.884C155.396 355.177 155.927 354.566 156.577 354.102C157.758 353.419 158.707 354.148 158.707 355.71Z" fill="#E9EEF8"/>
<path d="M158.337 356.416C158.328 356.89 158.208 357.356 157.987 357.776C157.766 358.196 157.449 358.558 157.063 358.834C156.369 359.239 155.801 358.834 155.801 357.874C155.81 357.401 155.928 356.936 156.147 356.516C156.366 356.096 156.68 355.733 157.063 355.456C157.758 355.051 158.337 355.49 158.337 356.416Z" fill="#504384"/>
<path d="M82.8833 397.143C82.9011 395.687 83.2626 394.255 83.9385 392.964C84.6143 391.673 85.5855 390.56 86.7729 389.715C87.2879 389.419 87.8689 389.256 88.4631 389.241C89.3451 389.234 90.2115 389.474 90.9635 389.935C91.349 390.234 91.6706 390.607 91.9092 391.032C92.1478 391.458 92.2986 391.926 92.3526 392.411L87.9768 401.378C87.525 401.576 87.0342 401.67 86.5411 401.652C86.048 401.634 85.5653 401.505 85.1291 401.274C84.4142 400.86 83.829 400.255 83.439 399.527C83.3171 399.282 83.2089 399.031 83.1149 398.775C82.9536 398.246 82.8755 397.696 82.8833 397.143Z" fill="#333067"/>
<path d="M92.4452 393.661C92.4229 395.116 92.0594 396.547 91.3839 397.837C90.7084 399.127 89.7397 400.241 88.5556 401.089C86.4025 402.327 84.6661 401.019 84.6661 398.15C84.6884 396.694 85.0519 395.264 85.7274 393.974C86.4029 392.684 87.3715 391.57 88.5556 390.722C90.6972 389.484 92.4452 390.803 92.4452 393.661Z" fill="#504384"/>
<path d="M90.9866 394.795C90.976 395.593 90.7776 396.377 90.4076 397.085C90.0376 397.792 89.5063 398.403 88.8566 398.867C87.699 399.538 86.7266 398.867 86.7266 397.259C86.7401 396.461 86.9396 395.678 87.3094 394.971C87.6791 394.264 88.209 393.653 88.8566 393.186C90.0027 392.504 90.9866 393.233 90.9866 394.795Z" fill="#E9EEF8"/>
<path d="M90.5815 395.5C90.5748 395.974 90.4572 396.439 90.238 396.859C90.0189 397.279 89.7044 397.642 89.3197 397.918C88.6135 398.323 88.0463 397.919 88.0463 396.958C88.0543 396.484 88.1737 396.018 88.3949 395.598C88.6161 395.178 88.9328 394.815 89.3197 394.54C90.0142 394.135 90.5815 394.575 90.5815 395.5Z" fill="#504384"/>
<path d="M97.0757 357.712C97.0579 356.255 96.6964 354.823 96.0206 353.532C95.3447 352.242 94.3735 351.128 93.1861 350.284C92.6675 349.986 92.0824 349.823 91.4844 349.809C90.6071 349.81 89.7466 350.05 88.9955 350.503C88.6076 350.8 88.2843 351.173 88.0455 351.598C87.8066 352.024 87.6572 352.494 87.6064 352.979L91.9822 361.946C92.4336 362.145 92.9237 362.239 93.4166 362.223C93.9094 362.207 94.3923 362.081 94.8299 361.854C95.546 361.436 96.1313 360.827 96.52 360.095C96.6242 359.899 96.7863 359.494 96.8442 359.343C97.0062 358.815 97.0843 358.264 97.0757 357.712Z" fill="#333067"/>
<path d="M87.5138 354.241C87.5333 355.695 87.8957 357.125 88.5715 358.414C89.2473 359.702 90.2175 360.814 91.4034 361.657C93.545 362.907 95.293 361.588 95.293 358.73C95.2706 357.274 94.9071 355.844 94.2316 354.554C93.5562 353.264 92.5875 352.15 91.4034 351.302C89.2155 350.064 87.5138 351.371 87.5138 354.241Z" fill="#504384"/>
<path d="M88.9608 355.363C88.9742 356.161 89.1738 356.944 89.5436 357.651C89.9133 358.358 90.4431 358.969 91.0908 359.436C92.2484 360.118 93.2208 359.436 93.2208 357.827C93.2101 357.029 93.0118 356.245 92.6418 355.537C92.2718 354.83 91.7405 354.219 91.0908 353.755C89.9216 353.084 88.9608 353.801 88.9608 355.363Z" fill="#E9EEF8"/>
<path d="M89.3428 356.069C89.3486 356.543 89.4659 357.008 89.6851 357.428C89.9043 357.848 90.2193 358.211 90.6046 358.487C91.3108 358.892 91.878 358.487 91.878 357.538C91.8718 357.063 91.7532 356.597 91.5319 356.176C91.3106 355.756 90.9928 355.394 90.6046 355.12C89.9101 354.715 89.3428 355.143 89.3428 356.069Z" fill="#504384"/>
<path d="M165.664 397.143C165.647 395.687 165.285 394.255 164.609 392.964C163.933 391.673 162.962 390.56 161.775 389.715C161.26 389.419 160.679 389.256 160.085 389.241C159.203 389.234 158.336 389.474 157.584 389.935C157.199 390.234 156.877 390.607 156.638 391.032C156.4 391.458 156.249 391.926 156.195 392.411L160.571 401.378C161.023 401.576 161.513 401.67 162.007 401.652C162.5 401.634 162.982 401.505 163.419 401.274C164.121 400.855 164.693 400.25 165.074 399.527C165.196 399.282 165.304 399.031 165.398 398.775C165.571 398.248 165.661 397.698 165.664 397.143Z" fill="#333067"/>
<path d="M156.068 393.661C156.09 395.116 156.453 396.547 157.129 397.837C157.804 399.127 158.773 400.241 159.957 401.089C162.11 402.327 163.847 401.019 163.847 398.15C163.825 396.694 163.461 395.264 162.786 393.974C162.11 392.684 161.141 391.57 159.957 390.722C157.816 389.484 156.068 390.803 156.068 393.661Z" fill="#504384"/>
<path d="M157.549 394.795C157.562 395.594 157.763 396.378 158.135 397.086C158.507 397.793 159.04 398.403 159.691 398.867C160.849 399.538 161.821 398.867 161.821 397.259C161.808 396.461 161.608 395.678 161.238 394.971C160.868 394.264 160.339 393.653 159.691 393.186C158.51 392.504 157.549 393.233 157.549 394.795Z" fill="#E9EEF8"/>
<path d="M157.931 395.5C157.938 395.974 158.056 396.439 158.275 396.859C158.494 397.279 158.809 397.642 159.193 397.918C159.899 398.323 160.467 397.919 160.467 396.958C160.459 396.484 160.339 396.018 160.118 395.598C159.897 395.178 159.58 394.815 159.193 394.54C158.499 394.135 157.931 394.575 157.931 395.5Z" fill="#504384"/>
<path d="M156.183 349.694C150.326 350.619 124.268 355.537 124.268 355.537C124.268 355.537 98.2102 380.679 92.3642 386.522C86.5183 392.365 88.4978 400.233 88.4978 400.233L91.0329 398.775C91.0329 398.775 91.8549 393.649 95.1425 390.676C96.7747 389.183 110.527 375.507 124.268 367.535C133.348 362.479 143.188 358.927 153.405 357.018C156.681 356.219 157.503 360.396 157.503 360.396L160.791 358.499C160.791 358.499 162.041 348.779 156.183 349.694Z" fill="#CCD7EE"/>
<path d="M92.3642 349.694C98.2101 350.619 124.268 355.537 124.268 355.537C124.268 355.537 150.326 380.679 156.183 386.522C159.656 389.993 161.474 393.776 161.589 397.745C161.674 398.282 161.554 398.832 161.251 399.285C160.949 399.737 160.487 400.059 159.957 400.186L157.503 398.775C157.503 398.775 156.681 393.649 153.405 390.676C151.761 389.183 138.009 375.507 124.268 367.535C110.527 359.563 95.2004 356.798 93.5565 356.393C92.6304 356.173 92.2021 357.156 91.6696 358.441C91.3802 359.065 91.1664 359.721 91.0329 360.396L87.7569 358.499C87.7569 358.499 86.5067 348.779 92.3642 349.694Z" fill="#CCD7EE"/>
<path d="M160.594 399.943C160.572 398.487 160.208 397.057 159.533 395.767C158.857 394.477 157.888 393.363 156.704 392.515C156.185 392.219 155.6 392.056 155.003 392.041C154.125 392.036 153.262 392.276 152.514 392.735C152.126 393.032 151.803 393.404 151.564 393.83C151.325 394.256 151.175 394.726 151.125 395.211L155.489 404.178C155.943 404.376 156.435 404.47 156.93 404.452C157.425 404.434 157.91 404.305 158.348 404.074C159.063 403.66 159.648 403.055 160.038 402.327C160.159 402.083 160.263 401.832 160.351 401.575C160.523 401.048 160.605 400.497 160.594 399.943Z" fill="#333067"/>
<path d="M150.997 396.461C151.015 397.917 151.377 399.349 152.052 400.64C152.728 401.931 153.699 403.044 154.887 403.889C157.028 405.127 158.776 403.819 158.776 400.95C158.757 399.495 158.395 398.065 157.719 396.777C157.043 395.488 156.073 394.377 154.887 393.533C152.734 392.284 150.997 393.603 150.997 396.461Z" fill="#504384"/>
<path d="M152.479 397.594C152.492 398.392 152.692 399.176 153.062 399.883C153.432 400.59 153.961 401.201 154.609 401.667C155.767 402.338 156.739 401.667 156.739 400.059C156.728 399.261 156.53 398.476 156.16 397.769C155.79 397.061 155.259 396.451 154.609 395.986C153.498 395.304 152.479 396.056 152.479 397.594Z" fill="#E9EEF8"/>
<path d="M152.861 398.3C152.868 398.774 152.985 399.239 153.205 399.659C153.424 400.079 153.738 400.442 154.123 400.718C154.817 401.123 155.385 400.718 155.385 399.77C155.378 399.295 155.26 398.827 155.041 398.406C154.822 397.984 154.508 397.619 154.123 397.34C153.428 396.947 152.861 397.375 152.861 398.3Z" fill="#504384"/>
<path d="M87.919 399.943C87.9367 398.487 88.2982 397.055 88.9741 395.764C89.65 394.473 90.6211 393.36 91.8086 392.515C92.3278 392.219 92.9125 392.056 93.5102 392.041C94.3884 392.036 95.2504 392.276 95.9991 392.735C96.387 393.032 96.7103 393.404 96.9492 393.83C97.1881 394.256 97.3375 394.726 97.3883 395.211L93.024 404.155C92.5702 404.353 92.0775 404.447 91.5825 404.429C91.0875 404.411 90.6029 404.282 90.1647 404.051C89.4499 403.637 88.8646 403.032 88.4746 402.304C88.3704 402.107 88.2084 401.702 88.1505 401.552C87.9909 401.031 87.9128 400.488 87.919 399.943Z" fill="#333067"/>
<path d="M97.5156 396.461C97.4978 397.917 97.1363 399.349 96.4605 400.64C95.7846 401.931 94.8134 403.044 93.626 403.889C91.4844 405.127 89.7364 403.819 89.7364 400.95C89.756 399.495 90.1183 398.065 90.7941 396.777C91.4699 395.488 92.4401 394.377 93.626 393.533C95.7792 392.284 97.5156 393.603 97.5156 396.461Z" fill="#504384"/>
<path d="M96.0338 397.594C96.0204 398.392 95.8209 399.176 95.4511 399.883C95.0813 400.59 94.5515 401.201 93.9038 401.667C92.7462 402.338 91.7738 401.667 91.7738 400.059C91.7845 399.261 91.9829 398.476 92.3529 397.769C92.7229 397.061 93.2542 396.451 93.9038 395.986C95.073 395.304 96.0338 396.056 96.0338 397.594Z" fill="#E9EEF8"/>
<path d="M95.6171 398.3C95.6104 398.774 95.4928 399.239 95.2736 399.659C95.0545 400.079 94.74 400.442 94.3553 400.718C93.6492 401.123 93.0819 400.718 93.0819 399.77C93.0881 399.293 93.2067 398.825 93.4279 398.403C93.6492 397.981 93.9669 397.616 94.3553 397.34C95.0846 396.947 95.6171 397.375 95.6171 398.3Z" fill="#504384"/>
<path d="M155.674 360.859C155.691 359.403 156.05 357.972 156.724 356.681C157.398 355.39 158.367 354.277 159.552 353.431C160.071 353.134 160.656 352.971 161.254 352.956C162.133 352.947 162.996 353.188 163.743 353.651C164.131 353.947 164.454 354.32 164.693 354.745C164.932 355.171 165.081 355.641 165.132 356.127L160.768 365.094C160.316 365.292 159.825 365.385 159.332 365.367C158.839 365.349 158.356 365.22 157.92 364.989C157.202 364.579 156.616 363.973 156.23 363.242C156.101 363.001 155.993 362.75 155.906 362.49C155.744 361.962 155.666 361.411 155.674 360.859Z" fill="#333067"/>
<path d="M165.271 357.376C165.248 358.832 164.885 360.262 164.209 361.552C163.534 362.842 162.565 363.956 161.381 364.804C159.228 366.042 157.492 364.735 157.492 361.865C157.511 360.411 157.873 358.981 158.549 357.692C159.225 356.404 160.195 355.293 161.381 354.449C163.523 353.246 165.271 354.518 165.271 357.376Z" fill="#504384"/>
<path d="M163.777 358.51C163.767 359.308 163.568 360.093 163.198 360.8C162.828 361.508 162.297 362.118 161.647 362.583C160.49 363.254 159.517 362.583 159.517 360.975C159.531 360.177 159.73 359.393 160.1 358.686C160.47 357.979 161 357.368 161.647 356.902C162.828 356.219 163.777 356.948 163.777 358.51Z" fill="#E9EEF8"/>
<path d="M163.407 359.216C163.401 359.691 163.282 360.158 163.061 360.578C162.839 360.998 162.522 361.36 162.134 361.634C161.439 362.039 160.872 361.634 160.872 360.685C160.878 360.21 160.996 359.743 161.215 359.321C161.434 358.899 161.749 358.535 162.134 358.256C162.84 357.874 163.407 358.29 163.407 359.216Z" fill="#504384"/>
<path d="M92.0053 360.512C91.9812 359.056 91.6169 357.627 90.9416 356.337C90.2662 355.047 89.2985 353.933 88.1158 353.084C87.5966 352.787 87.0118 352.624 86.4141 352.609C85.5349 352.608 84.6729 352.853 83.9252 353.315C83.5371 353.609 83.2136 353.979 82.9746 354.403C82.7356 354.827 82.5864 355.296 82.5361 355.78L86.9003 364.746C87.3537 364.945 87.8457 365.04 88.3404 365.024C88.8351 365.008 89.32 364.881 89.7596 364.654C90.4701 364.229 91.0537 363.622 91.4497 362.895C91.5703 362.652 91.6747 362.4 91.7622 362.143C91.9342 361.617 92.0163 361.065 92.0053 360.512Z" fill="#333067"/>
<path d="M82.4087 357.041C82.4377 358.502 82.81 359.935 83.4958 361.225C84.1815 362.516 85.1614 363.627 86.3562 364.469C88.4978 365.707 90.2342 364.388 90.2342 361.53C90.2178 360.074 89.8581 358.643 89.1842 357.352C88.5104 356.062 87.5415 354.948 86.3562 354.102C84.1451 352.864 82.4087 354.171 82.4087 357.041Z" fill="#504384"/>
<path d="M83.8905 358.163C83.9012 358.961 84.0995 359.746 84.4695 360.453C84.8395 361.161 85.3708 361.771 86.0205 362.236C87.1781 362.918 88.1505 362.236 88.1505 360.627C88.1398 359.829 87.9415 359.045 87.5714 358.337C87.2014 357.63 86.6702 357.019 86.0205 356.555C84.8397 355.884 83.8905 356.601 83.8905 358.163Z" fill="#E9EEF8"/>
<path d="M84.2609 358.869C84.2671 359.345 84.3857 359.814 84.6069 360.236C84.8282 360.658 85.1459 361.022 85.5343 361.299C86.2288 361.692 86.7961 361.299 86.7961 360.338C86.7894 359.865 86.6718 359.399 86.4526 358.979C86.2335 358.559 85.919 358.197 85.5343 357.92C84.8281 357.515 84.2609 357.943 84.2609 358.869Z" fill="#504384"/>
<path d="M105.885 298.102C87.3633 285.455 80.5334 271.733 80.5334 247.493H86.7266C86.7266 269.639 92.6652 281.545 109.393 292.988L105.885 298.102Z" fill="#BBC7E6"/>
<path d="M85.488 286.288V299.282C85.488 310.69 102.852 319.935 124.326 319.935C145.8 319.935 163.164 310.678 163.164 299.282V286.288H85.488Z" fill="#E9EEF8"/>
<path d="M79.9314 283.315V290.893C79.9314 303.84 99.6803 314.335 124.037 314.335C148.393 314.335 168.142 303.84 168.142 290.893V283.315H79.9314Z" fill="#919FD0"/>
<path d="M124.037 259.862C99.7266 259.862 79.9314 270.368 79.9314 283.315C79.9314 296.262 99.6803 306.756 124.037 306.756C148.393 306.756 168.142 296.262 168.142 283.315C168.142 270.368 148.393 259.862 124.037 259.862Z" fill="#ABB9DF"/>
<path d="M109.022 136.719C110.573 135.655 111.453 134.602 110.516 133.827C108.467 132.126 102.887 129.592 100.248 128.435C99.9003 128.273 99.5414 128.122 99.1941 127.984L98.8121 127.822C94.2511 126.144 89.1692 126.665 83.8557 129.765C65.3339 140.468 49.0116 178.685 49.0116 218.66C49.0116 250.12 51.4773 265.554 57.0454 269.824C60.2128 271.727 63.5039 273.416 66.8967 274.88C68.9457 271.721 70.138 269.349 70.138 269.349L68.7257 268.192C74.8611 264.177 79.7809 257.339 83.8789 254.979C89.3313 251.832 96.2306 254.91 105.492 246.035C114.752 237.161 118.306 218.648 118.306 178.673C118.272 159.813 114.718 145.478 109.022 136.719Z" fill="#919FD0"/>
<path d="M91.8664 133.838C110.388 123.147 126.282 142.782 126.282 182.757C126.282 222.733 122.74 241.245 113.479 250.12C104.218 258.994 97.2725 255.905 91.8664 259.063C86.4604 262.222 79.5147 273.249 70.2422 275.065C60.9697 276.882 57.0107 262.708 57.0107 222.733C57.0107 182.757 73.333 144.541 91.8664 133.838Z" fill="#ABB9DF"/>
<path d="M120.679 237.786L170.225 266.376C173.409 268.216 179.012 267.973 182.681 265.855L186.675 263.738C190.345 261.62 190.75 258.381 187.566 256.553L138.02 227.951C134.837 226.123 129.234 226.354 125.565 228.472L121.571 230.601C117.901 232.718 117.496 235.946 120.679 237.786Z" fill="#919FD0"/>
<path d="M189.719 255.315L189.696 260.012L184.776 261.875V255.812L189.719 255.315Z" fill="#919FD0"/>
<path d="M118.561 229.895V234.708L121.235 235.934L122.335 230.681L118.561 229.895Z" fill="#919FD0"/>
<path d="M120.679 233.03L170.225 261.62C173.409 263.46 179.012 263.229 182.681 261.111L186.675 258.982C190.345 256.865 190.75 253.637 187.566 251.797L138.02 223.207C134.837 221.367 129.234 221.599 125.565 223.716L121.571 225.845C117.901 227.962 117.496 231.191 120.679 233.03Z" fill="#919FD0"/>
<path d="M186.675 371.33C186.675 371.33 187.335 379.915 189.071 384.821C190.9 390.004 200.532 398.161 203.518 401.922C206.505 405.682 205.046 408.517 202.152 409.095C194.778 410.588 190.345 407.221 186.675 404.826C183.005 402.431 179.486 398.161 176.662 397.56C173.837 396.958 169.82 396.53 168.616 392.261C167.412 387.991 169.913 386.961 171.788 381.917C173.663 376.872 173.328 369.016 173.582 369.189C173.837 369.363 186.675 371.33 186.675 371.33Z" fill="#FBC5B4"/>
<path d="M171.788 381.917C171.707 382.183 173.154 385.168 177.09 389.345C180.25 392.689 188.377 399.527 193.297 400.464C198.216 401.401 199.721 397.895 199.721 397.895C201.925 399.911 203.98 402.084 205.868 404.398C207.581 406.793 207.581 409.697 200.914 410.299C194.246 410.9 186.791 406.712 184.406 404.317C182.021 401.922 177.333 397.791 177.333 397.791L177.217 399.272C177.217 399.272 173.455 399.272 171.487 397.988C169.519 396.704 167.887 395.547 167.887 391.462C167.887 387.378 171.788 381.917 171.788 381.917Z" fill="#333067"/>
<path d="M154.98 241.546C154.98 241.546 199.154 283.396 207.929 296.702C212.756 304.037 214.342 310.493 210.684 317.47C207.315 323.892 205.324 339.014 202.199 350.11C197.777 365.823 196.306 388.292 196.306 388.292C196.306 388.292 182.982 395.373 170.989 393.58C154.239 391.057 159.159 388.813 159.159 388.813C159.159 388.813 160.316 360.373 169.809 343.284C176.754 330.903 181.385 314.358 181.385 314.358C181.385 314.358 158.707 299.687 145.394 281.012C129.767 275.979 127.776 267.128 127.602 258.496C127.035 229.443 154.98 241.546 154.98 241.546Z" fill="#333067"/>
<path d="M150.638 389.114C150.638 389.114 151.298 397.71 153.035 402.604C154.864 407.788 164.495 415.945 167.482 419.705C170.468 423.466 169.01 426.312 166.116 426.891C158.742 428.372 154.308 425.016 150.638 422.621C146.969 420.226 143.45 415.945 140.625 415.355C137.801 414.765 133.784 414.325 132.58 410.044C131.376 405.763 133.865 404.757 135.752 399.7C137.638 394.644 137.291 386.799 137.546 386.973C137.801 387.147 150.638 389.114 150.638 389.114Z" fill="#FBC5B4"/>
<path d="M135.752 399.7C135.671 399.966 137.118 402.952 141.053 407.128C144.214 410.484 152.34 417.322 157.26 418.259C162.18 419.196 163.685 415.679 163.685 415.679C165.888 417.699 167.942 419.876 169.832 422.193C171.545 424.588 171.545 427.492 164.877 428.094C158.209 428.695 150.754 424.495 148.358 422.1C145.962 419.705 141.297 415.575 141.297 415.575L141.181 417.056C141.181 417.056 137.419 417.056 135.393 415.771C133.367 414.487 131.793 413.342 131.793 409.257C131.793 405.173 135.752 399.7 135.752 399.7Z" fill="#333067"/>
<path d="M129.373 228.286C129.373 228.286 154.204 251.716 147.397 276.43C159.286 290.581 170.642 304.431 174.335 310.019C179.174 317.343 178.734 326.079 175.122 333.611C171.985 340.148 169.091 348.745 165.965 359.852C161.543 375.553 160.073 398.034 160.073 398.034C160.073 398.034 154.713 405.057 142.581 405.057C129.952 405.057 127.961 400.51 127.961 400.51C127.961 400.51 133.17 365.059 139.329 346.489C143.982 332.419 148.867 328.948 148.867 328.948C148.867 328.948 126.815 314.485 113.491 295.811C97.8744 290.766 90.431 276.859 91.4034 268.273C94.9573 236.247 129.373 228.286 129.373 228.286Z" fill="#504384"/>
<path d="M138.565 163.956C141.019 161.642 144.769 156.77 151.379 158.286C161.694 160.6 191.896 183.394 191.896 183.394L224.112 181.149C224.112 181.149 227.261 184.134 227.203 190.752C222.781 193.171 197.545 201.663 190.588 203.109C184.973 204.267 142.836 181.01 142.836 181.01L138.565 163.956Z" fill="#FF761D"/>
<path d="M148.937 215.409C146.193 221.761 150.534 227.338 154.98 241.546C146.112 250.872 130.38 261.215 114.278 260.359C100.734 259.677 93.3482 251.103 87.6527 246.672C88.2315 239.371 91.5307 228.599 92.1906 219.389C93.2208 204.938 95.756 189.838 100.062 178.152C103.639 168.456 113.954 159.223 127.938 153.704C144.144 147.294 147.409 152.999 147.409 152.999C147.409 152.999 157.434 176.856 160.293 187.617C162.516 195.994 162.527 201.096 158.568 206.303C153.938 212.343 154.077 208.536 148.937 215.409Z" fill="#FF8B3F"/>
<path d="M125.183 150.43C125.368 149.701 138.217 156.539 138.206 156.794C137.963 161.005 139.815 162.972 141.98 166.883C143.137 168.931 142.697 173.247 144.596 177.551C146.228 181.242 145.29 180.652 142.396 182.364C137.766 185.071 129.929 182.514 123.284 174.438C124.291 173.374 119.811 169.428 120.645 166.975C121.698 163.77 123.134 157.997 125.183 150.43Z" fill="#926765"/>
<path d="M130.901 178.152L145.394 174.542C145.394 174.542 152.653 191.238 153.046 198.898C153.44 206.557 143.241 221.344 143.241 221.344C143.241 221.344 140.752 203.329 138.611 195.45C136.469 187.571 130.901 178.152 130.901 178.152Z" fill="white"/>
<path d="M144.816 156.551C144.816 156.551 152.502 170.273 155.581 177.759C153.733 179.642 151.665 181.297 149.423 182.688L158.313 187.316C157.942 192.955 156.748 198.509 154.771 203.804C151.669 211.371 141.69 224.341 141.69 224.341L142.917 218.914C142.917 218.914 150.314 206.916 149.249 198.227C148.184 189.538 143.693 177.794 140.671 170.4C137.65 163.007 137.835 161.491 137.835 161.491L144.816 156.551Z" fill="#FF761D"/>
<path d="M125.379 151.656C125.379 151.656 124.222 155.266 123.134 157.997C123.597 160.959 127.162 166.166 129.79 170.099C137.175 181.172 141.1 191.03 143.021 200.529C144.943 210.029 141.69 224.283 141.69 224.283C140.299 218.347 137.878 212.7 134.536 207.599C132.313 204.371 127.266 194.328 127.266 194.328L133.703 186.228L123.4 183.498C123.4 183.498 116.512 165.159 119.614 158.494C123.573 150.002 125.379 151.656 125.379 151.656Z" fill="#FF761D"/>
<path d="M131.214 118.565C133.645 112.711 138.565 103.628 128.516 99.8215C119.175 96.281 116.095 105.41 116.095 105.41C116.095 105.41 109.833 99.8215 103.026 107.516C97.5619 113.683 106.175 119.989 106.175 119.989C104.323 120.889 102.798 122.343 101.811 124.149C100.824 125.955 100.423 128.023 100.664 130.066C101.174 137.679 108.27 139.114 114.741 136.569C118.48 135.088 128.366 125.403 131.214 118.565Z" fill="#919FD0"/>
<path d="M113.699 119.433C114.146 118.819 114.76 118.346 115.468 118.071C116.176 117.796 116.948 117.731 117.693 117.883C117.52 117.186 117.546 116.455 117.767 115.772C117.988 115.09 118.395 114.482 118.943 114.018C119.487 113.596 120.148 113.351 120.835 113.318C121.523 113.285 122.205 113.465 122.786 113.833C122.914 113.903 123.053 114.007 123.18 114.088C123.163 113.191 123.413 112.309 123.898 111.554C124.264 110.936 124.821 110.454 125.485 110.181C126.149 109.908 126.884 109.857 127.579 110.038C130.496 110.906 131.978 115.904 131.214 118.565C131.175 118.669 131.113 118.762 131.033 118.839C130.953 118.915 130.856 118.972 130.751 119.005C129.593 122.974 126.711 125.785 123.411 128.261C122.381 129.025 121.154 130.17 119.776 130.089C118.399 130.008 116.882 128.562 115.956 127.521C114.243 125.589 111.974 121.944 113.699 119.433Z" fill="white"/>
<path d="M155.952 140.572C156.091 135.365 155.396 128.759 151.657 124.779C147.918 120.798 141.239 120.035 136.029 120.046C128.042 120.046 121.849 128.481 122.578 138.744C123.238 148.22 128.54 163.111 138.889 165.784C150.395 168.746 155.813 148.451 155.952 140.572Z" fill="#A17979"/>
<path d="M168.651 128.701C168.252 127.8 167.604 127.031 166.784 126.484C165.965 125.937 165.006 125.635 164.02 125.612C165.803 123.691 166.533 120.984 164.622 118.554C164.103 117.919 163.447 117.409 162.703 117.062C161.959 116.715 161.147 116.54 160.326 116.55C159.505 116.56 158.697 116.755 157.962 117.119C157.227 117.484 156.583 118.01 156.079 118.658C150.882 115.407 145.047 114.55 138.889 114.979C135.995 115.175 132.58 115.326 129.859 116.552C128.852 117.003 125.866 121.018 125.819 121.018C125.601 121.037 125.392 121.117 125.217 121.25C125.077 121.143 124.907 121.083 124.731 121.076C110.782 121.284 116.153 144.957 124.361 154.19C126.491 151.876 126.977 150.06 129.061 145.825C129.882 144.147 131.283 139.762 132.256 138.223C134.86 140.352 140.602 140.815 145.209 140.641C146.717 141.39 148.285 142.009 149.898 142.493C155.628 144.286 161.833 143.534 166.185 139.114C168.697 136.511 170.353 132.253 168.651 128.701Z" fill="#919FD0"/>
<path d="M132.012 142.574C132.012 142.574 129.003 136.893 126.317 140.098C123.631 143.303 125.472 150.372 128.563 150.43C131.654 150.488 132.012 142.574 132.012 142.574Z" fill="#A17979"/>
<path d="M108.907 171.928C118.411 171.928 119.707 190.706 119.742 196.792C119.776 202.878 115.505 227.916 115.505 227.916C115.505 227.916 125.287 235.61 131.711 239.66C138.136 243.71 148.08 249.923 148.08 249.923L143.646 258.126C143.646 258.126 127.185 256.877 118.839 254.227C110.492 251.577 96.6705 243.814 94.8994 237.971C93.1282 232.128 93.5566 212.516 92.3411 196.792C90.8014 177.296 101.857 171.939 108.907 171.928Z" fill="#FF761D"/>
<path d="M159.737 242.171C158.061 243.834 156.131 245.22 154.019 246.278C152.456 247.053 150.187 249.356 148.728 249.553C146.911 248.893 144.989 248.048 144.989 248.048C144.989 248.048 140.926 253.66 143.635 258.172C149.27 260.912 155.684 261.603 161.775 260.128C169.16 258.172 170.63 254.933 171.996 253.07C173.362 251.207 170.908 251.265 170.908 251.265C170.908 251.265 173.779 247.204 171.418 246.637C172.066 245.376 173.096 243.929 171.418 243.71C169.739 243.49 165.085 247.181 164.02 247.424C162.955 247.667 157.862 248.141 157.862 248.141L159.737 242.171Z" fill="#926765"/>
<path d="M222.434 181.346C226.08 179.151 230.021 177.487 234.137 176.405C237.232 175.767 240.256 174.825 243.167 173.594C245.482 172.772 245.482 175.086 243.167 176.29C241.251 177.503 239.487 178.94 237.911 180.571C237.216 181.184 241.731 183.776 246.014 182.584C250.297 181.392 252.312 180.015 255.947 179.344C258.609 178.858 256.826 181.346 256.826 181.346C256.826 181.346 259.269 180.837 259.257 182.028C259.257 182.746 256.699 184.088 256.699 184.088C256.699 184.088 258.713 183.822 258.713 185.048C258.713 186.275 256.213 187.27 256.213 187.27C256.388 187.281 256.559 187.332 256.712 187.419C256.864 187.505 256.995 187.626 257.095 187.771C257.194 187.916 257.259 188.081 257.285 188.255C257.31 188.429 257.296 188.606 257.243 188.774C256.803 189.85 255.264 190.428 253.272 191.088C250.668 191.956 248.642 193.02 244.174 193.228C239.705 193.437 236.777 193.367 234.577 192.766C231.561 191.936 228.445 191.523 225.316 191.539C225.211 187.956 224.221 184.454 222.434 181.346Z" fill="#926765"/>
<path d="M71.5272 281.753L107.807 302.695C110.018 303.968 113.919 303.852 116.477 302.336C119.024 300.867 119.302 298.611 117.091 297.338L80.8112 276.396C78.6002 275.123 74.699 275.239 72.1407 276.754C69.5939 278.235 69.3161 280.48 71.5272 281.753Z" fill="#E9EEF8"/>
<path d="M87.2707 306.698C87.2707 306.698 89.4123 306.907 90.1763 305.912C90.1763 305.912 83.6358 301.457 80.8344 295.197C78.7159 294.538 76.9216 293.497 76.9216 291.877V269.326H66.5031V291.923C66.5031 298.194 70.6937 303.077 77.9982 305.321C81.0133 306.194 84.1321 306.657 87.2707 306.698Z" fill="#E9EEF8"/>
<path d="M61.5138 271.629L111.071 300.219C114.243 302.059 119.846 301.827 123.516 299.698L127.521 297.581C131.191 295.464 131.584 292.224 128.412 290.396L78.8549 261.84C75.6714 260.012 70.0686 260.244 66.3989 262.361L62.4052 264.49C58.7355 266.561 58.3304 269.789 61.5138 271.629Z" fill="#7988C3"/>
<path d="M130.554 289.158L130.531 293.855L125.611 295.718V289.655L130.554 289.158Z" fill="#919FD0"/>
<path d="M59.3954 263.738V268.551L62.0695 269.778L63.1692 264.525L59.3954 263.738Z" fill="#7988C3"/>
<path d="M61.5138 266.873L111.071 295.464C114.243 297.303 119.846 297.072 123.516 294.954L127.521 292.826C131.191 290.708 131.584 287.48 128.412 285.64L78.8549 257.05C75.6714 255.211 70.0686 255.442 66.3989 257.559L62.4052 259.688C58.7355 261.84 58.3304 265.034 61.5138 266.873Z" fill="#919FD0"/>
<path d="M128.456 193.799L124.526 196.067L126.795 199.995L130.725 197.727L128.456 193.799Z" fill="#333067"/>
<path d="M133.752 193.292L121.421 200.408L126.127 208.554L138.458 201.438L133.752 193.292Z" fill="white"/>
<path d="M68.3437 321.439V467.039L178.815 531V385.399L68.3437 321.439Z" fill="#BBC7E6"/>
<path d="M405.684 398.705L178.641 531V385.399L405.684 253.105V398.705Z" fill="#CCD7EE"/>
<path d="M405.684 398.705L178.641 531V385.399L405.684 253.105V398.705Z" fill="#CCD7EE"/>
<path d="M284.54 361.322L197.927 411.78V464.702L284.54 414.244V361.322Z" fill="#52C3C0"/>
<path d="M405.684 274.868L178.641 407.163V388.616L405.684 256.321V274.868Z" fill="#BBC7E6"/>
<path d="M68.3437 321.439V343.203L178.815 407.163V385.399L68.3437 321.439Z" fill="#9EB1DB"/>
<path d="M411.484 259.549L178.815 393.811L60.1362 325.326L292.805 191.065L411.484 259.549Z" fill="#BBC7E6"/>
<path d="M411.484 251.138L178.815 385.399L60.1362 316.915L292.805 182.653L411.484 251.138Z" fill="#E9EEF8"/>
<path d="M411.484 251.138V259.549L178.815 393.811V385.399L411.484 251.138Z" fill="#CCD7EE"/>
<path d="M60.1362 316.915V325.326L178.815 393.811V385.399L60.1362 316.915Z" fill="#BBC7E6"/>
<path d="M212.235 246.313L238.142 261.262C241.939 263.449 248.561 263.171 252.948 260.649L278.578 246.151C282.954 243.629 283.428 239.799 279.643 237.612L253.736 222.663C249.939 220.465 243.317 220.743 238.93 223.277L213.3 237.774C208.924 240.296 208.45 244.126 212.235 246.313Z" fill="#16A395"/>
<path d="M212.235 245.214L238.142 260.163C241.939 262.349 248.561 262.072 252.948 259.549L278.578 245.052C282.954 242.518 283.428 238.7 279.643 236.513L253.736 221.553C249.939 219.366 243.317 219.643 238.93 222.166L213.3 236.663C208.924 239.197 208.45 243.015 212.235 245.214Z" fill="#52C3C0"/>
<path d="M258.192 225.776C263.147 229.86 268.321 236.513 267.882 241.187C267.442 245.862 260.045 249.437 255.009 247.042C249.973 244.647 241.118 238.202 238.744 235.715C236.371 233.227 238.744 227.905 244.533 225.209C250.321 222.513 254.916 223.08 258.192 225.776Z" fill="white"/>
<path d="M259.744 242.298C261.261 242.637 262.847 242.484 264.272 241.859C265.696 241.235 266.883 240.173 267.662 238.827C267.85 239.583 267.924 240.363 267.882 241.141C267.43 245.769 260.045 249.391 255.009 246.996C249.973 244.601 241.118 238.156 238.744 235.668C237.367 234.21 237.668 231.769 239.277 229.443C247.67 228.286 251.478 240.782 259.744 242.298Z" fill="#E9EEF8"/>
<path d="M264.362 241.72C265.763 240.748 264.004 237.415 262.302 235.934C260.6 234.453 258.354 235.171 259.28 236.825C260.207 238.48 263.147 242.564 264.362 241.72Z" fill="#CCD7EE"/>
<path d="M267.87 240.736C267.87 240.736 266.921 242.853 263.17 245.167C261.869 246.038 260.321 246.464 258.758 246.381C257.194 246.297 255.7 245.709 254.5 244.705C252.914 243.386 249.464 240.736 249.464 240.736C249.464 240.736 250.193 240.655 252.022 242.044C253.851 243.432 255.657 245.329 257.81 245.63C259.538 245.909 261.309 245.569 262.811 244.67C264.761 243.48 266.479 241.948 267.882 240.146L267.87 240.736Z" fill="#CCD7EE"/>
<path d="M262.742 237.439C263.286 238.288 263.766 239.178 264.177 240.1C264.613 241.17 264.849 242.311 264.872 243.467L264.096 244.045C264.246 242.563 263.994 241.069 263.367 239.718C263.026 239.027 262.594 238.385 262.082 237.809L262.742 237.439Z" fill="#CCD7EE"/>
<path d="M329.883 218.278L289.633 241.5L347.56 274.683L387.81 251.45L329.883 218.278Z" fill="white"/>
<path d="M335.938 225.024L302.089 244.566L347.167 270.321L381.015 250.791L335.938 225.024Z" fill="#E9EEF8"/>
<path d="M315.98 239.44L307.437 244.381L318.817 250.883L327.371 245.954L315.98 239.44Z" fill="#CCD7EE"/>
<path d="M330.069 247.389L321.525 252.318L332.905 258.82L341.448 253.891L330.069 247.389Z" fill="#CCD7EE"/>
<path d="M344.18 255.164L335.637 260.093L347.016 266.596L355.559 261.667L344.18 255.164Z" fill="#CCD7EE"/>
<path d="M330.277 221.622L296.301 241.245L300.376 243.444L334.352 223.82L330.277 221.622Z" fill="#CCD7EE"/>
<path d="M306.488 238.549L266.238 261.782L324.165 294.954L364.415 271.733L306.488 238.549Z" fill="white"/>
<path d="M312.542 245.295L278.694 264.837L323.771 290.592L357.631 271.062L312.542 245.295Z" fill="#E9EEF8"/>
<path d="M292.585 259.723L284.042 264.652L295.421 271.154L303.976 266.225L292.585 259.723Z" fill="#CCD7EE"/>
<path d="M306.673 267.66L298.13 272.589L309.509 279.092L318.053 274.163L306.673 267.66Z" fill="#CCD7EE"/>
<path d="M320.784 275.435L312.241 280.364L323.621 286.878L332.164 281.938L320.784 275.435Z" fill="#CCD7EE"/>
<path d="M306.882 241.893L272.906 261.528L276.98 263.726L310.968 244.091L306.882 241.893Z" fill="#CCD7EE"/>
<path d="M215.28 342.15C215.28 350.422 203.831 357.133 189.696 357.133C175.562 357.133 164.113 350.422 164.113 342.15C164.113 333.877 175.573 327.108 189.696 327.108C203.819 327.108 215.28 333.865 215.28 342.15Z" fill="#504384"/>
<path d="M215.291 339.928H164.125V342.15H215.291V339.928Z" fill="#504384"/>
<path d="M215.28 339.928C215.28 348.213 203.831 354.97 189.696 354.97C175.562 354.97 164.113 348.259 164.113 339.928C164.113 331.598 175.573 324.945 189.696 324.945C203.819 324.945 215.28 331.655 215.28 339.928Z" fill="#615699"/>
<path d="M200.497 338.204C200.497 341.675 195.635 344.568 189.638 344.568C183.642 344.568 178.78 341.722 178.78 338.204C178.78 334.687 183.642 331.841 189.638 331.841C195.635 331.841 200.497 334.733 200.497 338.204Z" fill="#504384"/>
<path d="M193.366 337.29C193.366 338.447 191.699 339.477 189.638 339.477C187.578 339.477 185.923 338.493 185.923 337.29C185.923 336.087 187.578 335.115 189.638 335.115C191.699 335.115 193.366 336.087 193.366 337.29Z" fill="#3F3872"/>
<path d="M193.366 312.31H185.923V337.568H193.366V312.31Z" fill="#3F3872"/>
<path d="M248.711 239.695H130.728V318.604H248.711V239.695Z" fill="#615699"/>
<path d="M248.711 246.406H130.728V325.315H248.711V246.406Z" fill="#504384"/>
<path d="M243.491 250.687H134.501V321.022H243.491V250.687Z" fill="#3F3872"/>
<path d="M121.085 324.887C124.974 320.004 123.191 313.143 121.212 309.313C118.538 304.141 112.403 309.151 108.247 313.536C107.402 313.467 106.533 313.409 105.654 313.409C104.774 313.409 103.917 313.467 103.072 313.536C98.9279 309.151 92.7925 304.153 90.1184 309.313C88.3357 312.784 86.6456 318.569 89.2965 323.267C92.7694 329.284 100.259 331.019 105.654 331.019C111.048 331.019 117.091 329.943 121.085 324.887Z" fill="#BBC7E6"/>
<path d="M121.085 314.15C124.974 309.255 123.191 302.394 121.212 298.576C118.538 293.404 112.403 298.414 108.247 302.799C107.402 302.718 106.533 302.672 105.654 302.672C104.774 302.672 103.917 302.672 103.072 302.799C98.9279 298.414 92.7925 293.404 90.1184 298.576C88.3357 302.047 86.6456 307.832 89.2965 312.518C92.7694 318.546 100.259 320.282 105.654 320.282C111.048 320.282 117.091 319.206 121.085 314.15Z" fill="#CCD7EE"/>
<path d="M89.5512 300.936C89.5512 305.807 96.7747 309.741 105.688 309.741C114.602 309.741 121.814 305.807 121.814 300.936C121.814 296.065 114.59 292.131 105.688 292.131C96.7863 292.131 89.5512 296.077 89.5512 300.936Z" fill="white"/>
<path d="M97.6429 301.769C97.6429 304.188 101.243 306.155 105.688 306.155C110.134 306.155 113.722 304.188 113.722 301.769C113.722 299.351 110.122 297.384 105.688 297.384C101.255 297.384 97.6429 299.34 97.6429 301.769Z" fill="#BBC7E6"/>
<path d="M126.143 322.665C125.485 321.952 124.625 321.456 123.678 321.242C123.758 320.406 123.703 319.562 123.516 318.743C124.296 318.625 125.001 318.21 125.484 317.586C127.799 314.855 125.923 310.1 123.006 308.133C123.989 308.004 124.895 307.536 125.567 306.809C126.24 306.082 126.636 305.142 126.687 304.153C126.687 301.654 124.071 300.508 121.524 300.219C121.921 299.616 122.178 298.932 122.277 298.217C122.423 297.398 122.269 296.553 121.844 295.838C121.419 295.122 120.751 294.583 119.962 294.318L119.788 294.26C120.012 293.241 119.899 292.177 119.464 291.229C118.92 290.237 118.022 289.487 116.95 289.127C115.877 288.766 114.709 288.823 113.676 289.285C113.054 289.53 112.475 289.874 111.963 290.303C112.321 286.705 111.696 283.107 108.768 281.811C107.837 281.458 106.812 281.445 105.873 281.776C104.935 282.106 104.143 282.758 103.639 283.616C103.032 284.463 102.635 285.442 102.482 286.473C101.981 285.945 101.373 285.531 100.697 285.26C100.022 284.988 99.2961 284.865 98.569 284.9C95.2467 285.224 95.0962 287.966 96.0917 290.789L95.4782 290.407C93.3019 289.135 89.0534 287.179 87.0276 289.736C85.0018 292.293 87.7916 295.394 89.667 296.91C90.5811 297.647 91.5752 298.28 92.6305 298.796C89.8638 299.247 87.4328 300.566 88.5441 303.528C88.8887 304.279 89.4321 304.922 90.1156 305.387C90.799 305.852 91.5966 306.121 92.4221 306.166C94.1071 306.217 95.7782 305.848 97.2841 305.09C96.8952 305.634 96.7182 306.3 96.7864 306.965C96.8546 307.63 97.1633 308.247 97.6545 308.7C99.1594 309.857 101.232 309.244 102.945 307.902C103.616 310.424 105.26 312.634 108.212 312.391C111.685 312.125 111.87 308.642 110.655 306.039C112.009 306.582 113.484 306.75 114.926 306.525C114.926 307.045 114.926 307.555 114.926 308.064C114.77 309.386 114.896 310.727 115.297 311.998C115.447 312.361 115.672 312.689 115.958 312.961C116.243 313.232 116.582 313.44 116.953 313.572C117.324 313.704 117.719 313.757 118.111 313.727C118.504 313.697 118.886 313.584 119.232 313.398C119.076 314.309 119.155 315.245 119.464 316.117C118.617 317.358 117.844 318.649 117.149 319.981C116.544 320.977 116.208 322.114 116.176 323.279C116.22 323.777 116.381 324.257 116.646 324.681C116.912 325.105 117.274 325.459 117.704 325.716C118.133 325.972 118.618 326.123 119.117 326.156C119.616 326.189 120.116 326.103 120.575 325.905L120.923 325.743C121.165 326.334 121.565 326.846 122.08 327.224C122.711 327.61 123.453 327.774 124.188 327.688C124.923 327.602 125.607 327.271 126.132 326.75C126.643 326.193 126.927 325.465 126.929 324.71C126.931 323.954 126.651 323.225 126.143 322.665Z" fill="#52C3C0"/>
<path d="M126.051 322.573C124.85 323.075 123.521 323.184 122.254 322.885C121.822 322.712 121.434 322.449 121.113 322.112C120.793 321.776 120.55 321.374 120.399 320.934C120.249 320.495 120.195 320.029 120.241 319.566C120.287 319.104 120.433 318.658 120.668 318.257C121.323 316.989 122.22 315.861 123.307 314.936C123.189 314.727 123.085 314.511 122.995 314.288C122.738 313.493 122.617 312.66 122.636 311.824C119.441 312.287 118.862 309.325 119.163 306.467C118.617 306.332 118.103 306.091 117.65 305.757C117.197 305.424 116.814 305.004 116.524 304.523C116.192 303.794 116.003 303.009 115.968 302.209C114.893 302.644 113.741 302.857 112.582 302.838C111.422 302.818 110.279 302.565 109.219 302.093C108.886 302.596 108.455 303.026 107.952 303.358C107.449 303.69 106.883 303.917 106.29 304.026C105.412 304.235 104.486 304.102 103.703 303.652C102.92 303.203 102.338 302.471 102.077 301.607C101.394 301.793 100.734 301.943 100.166 302.059C98.7079 302.359 96.6242 302.637 95.536 301.33C94.0774 299.583 95.6981 297.859 97.6776 296.702C95.7578 295.984 93.9434 295.011 92.2832 293.809C90.5515 292.61 89.3167 290.82 88.8103 288.776C88.1877 288.959 87.6375 289.331 87.236 289.84C85.268 292.328 88 295.498 89.8753 297.014C90.7895 297.751 91.7835 298.384 92.8388 298.9C90.0721 299.351 87.6411 300.67 88.7524 303.632C89.0971 304.383 89.6405 305.026 90.3239 305.491C91.0074 305.956 91.8049 306.225 92.6304 306.27C94.3154 306.322 95.9866 305.952 97.4924 305.194C97.1035 305.738 96.9265 306.404 96.9948 307.069C97.063 307.734 97.3717 308.351 97.8629 308.804C99.3678 309.961 101.44 309.348 103.153 308.006C103.825 310.528 105.468 312.738 108.42 312.495C111.893 312.229 112.078 308.746 110.863 306.143C112.217 306.686 113.693 306.854 115.134 306.629C115.134 307.15 115.134 307.659 115.134 308.168C114.978 309.49 115.104 310.831 115.505 312.102C115.655 312.465 115.881 312.794 116.166 313.065C116.451 313.336 116.79 313.544 117.161 313.676C117.532 313.808 117.927 313.861 118.32 313.831C118.712 313.801 119.094 313.689 119.441 313.502C119.284 314.413 119.364 315.349 119.672 316.221C118.825 317.462 118.052 318.753 117.357 320.085C116.752 321.081 116.417 322.218 116.385 323.383C116.428 323.881 116.589 324.361 116.855 324.785C117.12 325.209 117.483 325.564 117.912 325.82C118.342 326.076 118.826 326.227 119.325 326.26C119.824 326.293 120.324 326.207 120.784 326.009L121.131 325.847C121.373 326.438 121.774 326.95 122.288 327.328C122.919 327.715 123.662 327.878 124.396 327.792C125.131 327.706 125.816 327.375 126.34 326.854C126.841 326.273 127.103 325.523 127.073 324.757C127.043 323.99 126.723 323.263 126.178 322.723L126.051 322.573Z" fill="#34BDB3"/>
<path d="M105.526 288.186C105.467 287.44 105.12 286.747 104.558 286.252C103.996 285.758 103.264 285.501 102.516 285.536C99.715 285.802 100.12 288.903 101.255 291.136C100.096 289.885 98.6072 288.987 96.9599 288.545C96.2226 288.315 95.4254 288.377 94.7322 288.717C94.039 289.057 93.5023 289.65 93.2324 290.373C92.0748 294.584 99.3446 294.156 103.142 293.231C104.415 291.831 105.758 290.222 105.526 288.186Z" fill="#16A395"/>
<path d="M117.195 294.538C116.431 292.976 114.521 292.93 113.109 293.497C112.507 293.737 111.957 294.09 111.488 294.538C111.488 294.226 111.581 293.902 111.627 293.612C111.781 292.8 111.717 291.962 111.442 291.183C111.334 290.847 111.161 290.536 110.932 290.268C110.704 290 110.424 289.78 110.11 289.62C109.795 289.461 109.452 289.366 109.101 289.34C108.749 289.314 108.396 289.358 108.061 289.47C106.765 290.06 106.591 291.68 106.904 292.941C107.09 293.7 107.428 294.413 107.898 295.037C108.367 295.662 108.959 296.184 109.636 296.574C109.636 296.69 106.429 301.793 111.569 302.556C111.919 302.569 112.267 302.507 112.592 302.376C112.916 302.244 113.209 302.046 113.452 301.794C113.694 301.542 113.881 301.241 113.999 300.912C114.118 300.583 114.165 300.232 114.139 299.883C114.111 299.48 114.001 299.086 113.815 298.726C115.968 298.356 118.191 296.609 117.195 294.538Z" fill="#16A395"/>
<path d="M123.4 300.3C121.374 299.302 119.078 298.99 116.859 299.409C116.188 300.508 117.23 303.019 118.26 303.713C119.092 304.207 120.036 304.479 121.003 304.503C121.97 304.527 122.927 304.303 123.782 303.852C125.275 302.834 124.847 301.098 123.4 300.3Z" fill="#16A395"/>
<path d="M99.4604 296.32C101.494 295.308 103.801 294.983 106.036 295.394C106.707 296.493 105.665 298.993 104.623 299.698C103.791 300.189 102.847 300.459 101.88 300.483C100.914 300.508 99.9578 300.285 99.1015 299.837C97.6082 298.865 98.0365 297.118 99.4604 296.32Z" fill="#16A395"/>
<path d="M121.085 305.877C119.047 307.115 117.415 312.09 120.703 312.379C121.342 312.393 121.961 312.16 122.433 311.729C122.905 311.298 123.193 310.703 123.238 310.065C123.469 308.399 122.3 306.964 121.085 305.877Z" fill="#16A395"/>
<path d="M123.932 315.908C122.277 317.644 121.964 322.85 125.217 322.307C125.838 322.16 126.378 321.78 126.725 321.245C127.072 320.711 127.199 320.063 127.081 319.437C126.873 317.748 125.345 316.637 123.932 315.908Z" fill="#16A395"/>
<path d="M104.994 294.411C104.994 294.411 99.333 289.574 98.6848 292.316C98.2333 294.237 102.181 295.221 104.994 294.411Z" fill="#34BDB3"/>
<path d="M104.994 294.411C104.994 294.411 106.753 290.35 104.646 289.285C102.54 288.221 101.822 292.872 104.994 294.411Z" fill="#34BDB3"/>
<path d="M108.038 295.221C108.038 295.221 102.632 295.325 102.898 297.384C103.165 299.444 105.526 299.571 106.487 297.882C107.448 296.192 108.038 295.221 108.038 295.221Z" fill="#34BDB3"/>
<path d="M110.666 295.221C110.666 295.221 112.009 299.849 113.444 300.543C114.88 301.237 117.38 298.703 115.204 297.188C113.828 296.253 112.289 295.586 110.666 295.221Z" fill="#34BDB3"/>
<path d="M116.882 299.409C116.882 299.409 117.45 301.723 119.198 301.85C120.946 301.978 123.458 299.976 121.061 299.05C120.386 298.777 119.655 298.667 118.929 298.73C118.203 298.792 117.502 299.025 116.882 299.409Z" fill="#34BDB3"/>
<path d="M120.691 305.136C120.436 305.402 119.614 309.244 121.073 310.123C122.532 311.002 124.905 310.123 123.863 308.237C123.06 306.972 121.974 305.911 120.691 305.136Z" fill="#34BDB3"/>
<path d="M486.265 365.811V442.024C486.265 443.1 484.818 443.968 483.036 443.968C481.253 443.968 479.806 443.1 479.806 442.024V365.811H486.265Z" fill="#504384"/>
<path d="M433.964 391.011V472.709C433.964 473.785 432.517 474.653 430.735 474.653C428.952 474.653 427.505 473.785 427.505 472.709V391.011H433.964Z" fill="#504384"/>
<path d="M381.675 370.08V442.591C381.675 443.656 380.228 444.524 378.445 444.524C376.663 444.524 375.204 443.656 375.204 442.591V370.08H381.675Z" fill="#504384"/>
<path d="M370.319 371.457L430.677 406.284L491 371.446L430.642 336.608L370.319 371.457Z" fill="#85C1EA"/>
<path d="M370.319 366.713L430.677 401.552L491 366.702L430.642 331.864L370.319 366.713Z" fill="#6EC9C8"/>
<path d="M491 366.702V371.446L430.677 406.284V401.552L491 366.702Z" fill="#16A395"/>
<path d="M370.319 366.713V371.457L430.677 406.284V401.552L370.319 366.713Z" fill="#52C3C0"/>
<path d="M428.061 254.991L432.263 252.677C432.791 252.401 433.385 252.276 433.98 252.317C434.574 252.358 435.146 252.563 435.631 252.908L485.872 281.903C488.708 283.535 491 287.908 491 291.68V367.003L486.566 369.432L430.503 332.095L429.16 259.711L428.061 254.991Z" fill="#16A395"/>
<path d="M426.081 334.56V259.225C426.081 255.465 428.396 253.73 431.198 255.361L481.45 284.356C484.274 285.988 486.566 290.361 486.566 294.133V369.444L426.081 334.56Z" fill="#52C3C0"/>
<path d="M413.521 476.446C413.521 476.446 415.153 485.297 414.459 490.33C413.764 495.363 412.467 496.416 410.812 497.99C410.388 498.434 409.838 498.739 409.236 498.863C408.634 498.987 408.009 498.925 407.443 498.684C407.443 498.684 405.904 508.959 400.671 512.742C395.439 516.526 386.502 516.213 382.543 514.35C378.584 512.488 381.872 505.326 386.456 498.395C391.04 491.464 396.77 484.059 398.565 477.568C408.451 477.048 413.521 476.446 413.521 476.446Z" fill="#333067"/>
<path d="M364.288 447.763C364.71 450.593 365.349 453.385 366.198 456.117C367.552 460.375 366.07 466.368 366.07 466.368C366.07 466.368 365.191 469.006 361.243 469.839C359.04 470.328 356.756 470.328 354.552 469.839C352.115 472.78 349.345 475.428 346.298 477.73C341.61 481.201 331.168 483.944 328.321 483.516C323.69 482.891 321.19 479.35 321.502 477.036C321.815 474.722 327.128 468.231 331.516 465.385C334.375 463.534 340.846 457.286 342.779 455.191C344.831 452.86 346.682 450.36 348.313 447.717L364.288 447.763Z" fill="#333067"/>
<path d="M381.71 373.875C378.874 357.793 369.578 342.832 357.909 352.517C353.557 356.138 345.453 359.771 345.453 372.985C345.453 388.871 342.895 428.962 342.895 447.104C345.592 455.064 365.7 459.831 369.231 452.391C370.597 445.75 378.711 395.408 380.899 384.277C382.335 376.976 381.71 373.899 381.71 373.875Z" fill="#333067"/>
<path d="M436.453 318.604C424.893 320.825 413.471 323.714 402.246 327.259C393.737 329.943 370.388 344.325 357.909 352.517C354.714 354.622 350.188 360.489 349.644 363.196C360.919 366.667 366.568 378.237 370.979 389.206C383.307 383.687 416.913 364.608 426.405 360.639C440.297 354.854 445.772 335.404 445.772 335.404L436.453 318.604Z" fill="#333067"/>
<path d="M420.235 390.271C416.936 376.12 395.138 377.844 390.866 388.905C387.799 396.877 387.799 396.877 388.945 412.809C390.021 427.909 392.093 462.041 392.093 480.542C400.915 488.641 415.095 483.712 417.272 480.056C416.878 454.358 423.06 434.492 423.338 412.948C423.402 405.279 422.357 397.641 420.235 390.271Z" fill="#504384"/>
<path d="M472.536 339.604C470.719 333.657 472.825 330.811 466.354 328.034C463.24 326.692 459.027 326.935 455.739 326.634L438.12 325.026C435.874 324.829 429.751 329.503 429.751 329.503C424.53 336.978 425.653 338.76 423.337 347.738C412.062 356.994 395.254 376.756 389.767 391.705C388.736 394.54 412.363 404.363 416.334 410.576C420.455 409.419 446.744 388.338 453.841 382.912C460.069 378.145 465.243 376.294 469.827 369.918C474.828 363.023 474.967 347.622 472.536 339.604Z" fill="#504384"/>
<path d="M428.57 230.601C428.57 230.601 425.444 224.434 414.563 231.468C410.268 234.245 402.234 251.138 396.041 265.022C394.744 267.938 391.642 280.561 388.98 286.242C395.589 291.576 395.219 300.184 394.895 308.746C396.782 309.671 398.893 310.04 400.981 309.81C403.07 309.581 405.05 308.762 406.691 307.45C416.253 300.346 427.933 284.021 428.118 282.54C428.385 280.503 427.331 277.668 425.595 274.568C427.47 255.361 428.57 230.601 428.57 230.601Z" fill="#919FD0"/>
<path d="M443.549 233.944C440.331 233.377 427.69 231.052 426.567 231.815C418.464 237.253 410.118 254.748 409.504 266.306C408.983 276.049 409.666 317.216 410.175 319.784C407.2 321.057 401.852 324.135 405.95 327.444C412.491 332.731 433.142 344.325 442.994 346.361C457.256 349.289 466.933 347.981 472.108 337.996C474.064 334.224 474.654 331.054 471.263 329.492C477.433 319.148 471.946 287.549 473.138 278.582C474.932 265.045 479.007 256.24 470.128 247.343C466.25 243.444 450.588 235.229 443.549 233.944Z" fill="#ABB9DF"/>
<path d="M452.845 220.638C452.845 220.638 439.104 225.764 433.779 230.415C428.454 235.067 417.503 243.525 429.67 250.883C439.382 256.761 450.229 247.829 454.778 241.442C451.803 238.422 452.845 220.638 452.845 220.638Z" fill="#926765"/>
<path d="M453.111 339.477C453.111 339.477 442.612 335.693 439.22 334.363C436.534 333.287 424.379 328.948 424.379 328.948C424.379 328.948 433.906 335.612 439.498 337.649C445.089 339.685 453.111 339.477 453.111 339.477Z" fill="#919FD0"/>
<path d="M434.578 321.555C434.578 321.555 441.859 322.908 447.427 323.394C452.996 323.88 462.395 325.928 462.395 325.928C462.395 325.928 452.104 327.687 446.247 326.484C442.121 325.466 438.183 323.803 434.578 321.555Z" fill="#7D9EC6"/>
<path d="M439.428 253.892C438.722 254.482 426.313 262.963 421.022 267.012C419.512 260.528 419.627 253.772 421.358 247.343L439.428 253.892Z" fill="white"/>
<path d="M429.01 232.915C429.01 232.915 423.754 236.825 421.404 240.643C418.012 246.151 419.679 253.602 419.679 253.602C422.91 252.361 426.262 251.465 429.681 250.929C429.079 249.553 427.285 243.767 428.003 240.354C429.809 231.757 429.01 232.915 429.01 232.915Z" fill="#919FD0"/>
<path d="M421.914 210.931C423.222 205.724 425.734 199.361 430.549 196.445C435.365 193.529 442.241 194.628 447.358 196.063C455.276 198.296 459.085 208.351 455.531 218.336C452.243 227.592 442.866 240.863 431.869 240.643C426.266 240.539 422.932 235.634 421.543 229.941C419.888 223.184 420.825 215.212 421.914 210.931Z" fill="#A17979"/>
<path d="M454.917 202.45C452.069 182.711 419.772 179.39 415.037 204.938C415.547 205.933 421.312 208.733 428.929 211.996C434.254 214.31 440.435 212.805 446.131 211.348C446.247 214.819 449.986 218.197 453.331 218.417C451.768 222.039 450.692 227.766 452.741 231.665C453.817 227.349 460.312 224.723 461.134 220.453C461.276 219.566 461.229 218.659 460.996 217.792C460.762 216.924 460.347 216.116 459.779 215.42C464.085 212.088 461.238 201.212 454.917 202.45Z" fill="#333067"/>
<path d="M448.481 217.653C448.481 217.653 451.294 213.881 454.13 216.855C456.966 219.829 449.581 225.567 449.581 225.567L448.481 217.653Z" fill="#926765"/>
<path d="M421.543 229.929C421.543 229.929 422.944 229.455 426.695 230.647C430.445 231.839 434.103 235.425 437.287 234.87C438.57 234.71 439.787 234.213 440.815 233.428C441.842 232.643 442.642 231.599 443.133 230.404C444.395 226.818 445.34 223.128 445.957 219.377C447.312 220.326 447.3 221.379 447.219 222.733C447.001 226.885 446.158 230.981 444.719 234.882C442.982 238.688 437.101 243.235 429.427 243.883C422.678 244.462 421.613 240.898 421.196 236.606C420.919 234.377 421.036 232.117 421.543 229.929Z" fill="#333067"/>
<path d="M423.337 233.852C423.337 233.852 425.363 233.967 426.185 232.868C427.343 235.182 429.751 235.738 430.723 236.432C430.046 237.047 429.202 237.447 428.298 237.583C427.393 237.719 426.469 237.584 425.641 237.196C425.004 236.881 424.457 236.408 424.054 235.823C423.651 235.238 423.404 234.559 423.337 233.852Z" fill="#926765"/>
<path d="M452.752 231.665V236.004C452.752 236.004 441.686 247.482 427.991 248.951C429.091 254.019 433.038 260.521 433.038 260.521C437.449 259.051 441.741 257.244 445.876 255.118C455.461 249.53 458.008 243.027 458.008 241.731C458.02 239.637 456.167 231.503 452.752 231.665Z" fill="#919FD0"/>
<path d="M396.469 278.606C392.939 282.181 376.697 291.726 368.05 299.964C365.526 301.457 365.607 305.333 365.538 311.014C365.434 319.715 377.901 323.047 381.849 321.555C392.094 317.678 399.792 313.964 406.656 307.497C405.163 292.629 400 275.019 396.469 278.606Z" fill="#919FD0"/>
<path d="M470.14 247.343C478.162 252.191 484.668 258.913 484.668 277.692C484.668 293.89 483.163 319.75 480.327 325.13C477.491 330.51 461.261 334.212 449.395 334.212C441.292 334.212 433.513 331.829 431.198 327.86C427.435 321.427 429.866 316.29 431.487 312.599C434.15 306.606 462.557 305.854 462.557 305.854C462.557 305.854 457.927 296.308 456.874 278.085C455.82 259.862 462.824 249.24 470.14 247.343Z" fill="#919FD0"/>
<path d="M439.579 314.069C441.616 317.112 442.866 325.234 440.366 329.11C437.865 332.986 427.088 333.426 425.248 330.371C423.939 328.184 421.775 319.958 423.256 314.022C423.824 311.708 426.88 311.257 428.813 311.338C434.717 311.593 437.773 311.373 439.579 314.069Z" fill="white"/>
<path d="M357.99 281.51C357.99 281.51 372.183 283.234 381.999 287.607C403.16 297.049 411.541 302.973 414.956 318.662C418.371 334.351 417.7 351.244 417.272 350.295C416.843 349.346 378.769 335.474 378.769 335.474C378.769 335.474 378.075 312.75 373.525 303.274C368.374 292.351 357.99 281.51 357.99 281.51Z" fill="white"/>
<path d="M427.667 314.103C427.667 314.103 418.834 308.931 414.239 306.93C409.643 304.928 410.766 305.576 404.434 310.574C398.101 315.573 398.136 317.794 399.803 318.373C401.47 318.951 397.43 322.7 399.803 324.158C402.176 325.616 407.906 322.908 410.662 323.452C417.955 324.922 418.939 326.923 422.62 327.71C427.563 328.717 430.723 327.849 432.077 325.859C433.872 323.244 433.698 317.517 427.667 314.103Z" fill="#84534E"/>
<path d="M381.281 311.523C378.237 307.566 372.889 303.262 371.187 303.274C370.365 304.199 369.566 305.657 371.569 307.902C370.307 309.406 370.979 311.546 371.569 312.854C370.411 315.295 372.078 317.482 378.746 320.953C381.166 322.226 380.923 319.946 380.425 318.234C382.532 318.812 382.474 316.626 382.011 315.434C383.597 314.393 382.601 313.236 381.281 311.523Z" fill="#84534E"/>
<path d="M216.402 437.015V433.289L219.644 431.414V419.914L216.842 421.533V418.676C217.58 418.08 218.273 417.43 218.914 416.732C219.501 416.093 220.05 415.421 220.558 414.719L223.105 413.249V429.448L225.895 427.828V431.565L216.402 437.015Z" fill="white"/>
<path d="M220.964 446.005C212.351 450.968 205.347 445.681 205.347 434.203C205.347 422.725 212.351 409.362 220.964 404.386C229.576 399.411 236.568 404.71 236.568 416.188C236.568 427.666 229.576 441.041 220.964 446.005ZM220.964 407.001C213.427 411.352 207.304 423.049 207.304 433.081C207.304 443.112 213.427 447.74 220.964 443.39C228.5 439.039 234.612 427.353 234.612 417.322C234.612 407.29 228.488 402.662 220.964 407.001Z" fill="white"/>
<path d="M272.94 384.335L243.919 401.089C242.866 401.69 241.997 401.089 241.997 399.631C242.011 398.912 242.191 398.207 242.525 397.57C242.858 396.934 243.336 396.383 243.919 395.963L272.94 379.221C273.994 378.608 274.862 379.221 274.862 380.667C274.849 381.386 274.668 382.091 274.334 382.728C274.001 383.364 273.524 383.915 272.94 384.335Z" fill="white"/>
<path d="M272.94 395.5L243.919 412.254C242.866 412.867 241.997 412.254 241.997 410.808C242.009 410.087 242.189 409.38 242.522 408.741C242.856 408.102 243.334 407.55 243.919 407.128L272.94 390.386C273.994 389.785 274.862 390.386 274.862 391.844C274.847 392.561 274.665 393.264 274.332 393.898C273.998 394.533 273.522 395.081 272.94 395.5Z" fill="white"/>
<path d="M272.94 406.897L243.919 423.651C242.866 424.252 241.997 423.651 241.997 422.193C242.011 421.474 242.191 420.769 242.525 420.132C242.858 419.496 243.336 418.945 243.919 418.525L272.94 401.841C273.994 401.228 274.862 401.841 274.862 403.287C274.84 403.996 274.655 404.69 274.322 405.316C273.988 405.942 273.516 406.483 272.94 406.897Z" fill="white"/>
</g>
<g clip-path="url(#clip1_109_3)">
<path d="M45.8342 472.046C45.8342 472.046 52.0775 504.402 52.2047 504.814C53.4148 508.804 60.2281 511.86 68.4488 511.86C76.8887 511.86 83.8467 508.642 84.7806 504.499C84.8507 504.183 91.0677 472.054 91.0677 472.054L45.8342 472.046Z" fill="#BBC7E6"/>
<path d="M45.8342 472.046C45.8342 472.046 52.0775 504.402 52.2047 504.814C53.4148 508.804 60.2281 511.86 68.4488 511.86C76.8887 511.86 83.8467 508.642 84.7806 504.499C84.8507 504.183 91.0677 472.054 91.0677 472.054L45.8342 472.046Z" fill="#16A395"/>
<path d="M57.1722 503.679C62.9289 502.285 67.3922 497.821 70.5489 493.012C73.5303 488.478 75.3147 483.366 77.0553 478.254C77.7524 476.211 78.4276 474.141 79.0239 472.046H45.8342C45.8342 472.046 51.2182 499.961 52.0863 504.262C53.7987 504.269 55.5059 504.073 57.1722 503.679Z" fill="#52C3C0"/>
<path d="M68.4488 460.598C55.9577 460.598 45.8342 465.723 45.8342 472.046C45.8342 478.368 55.9577 483.489 68.4488 483.489C80.9398 483.489 91.0853 478.363 91.0853 472.046C91.0853 465.728 80.9398 460.598 68.4488 460.598Z" fill="#52C3C0"/>
<path d="M68.4488 463.018C57.4221 463.018 48.4868 467.061 48.4868 472.046C48.4868 477.031 57.4221 481.055 68.4488 481.055C79.4755 481.055 88.4108 477.017 88.4108 472.032C88.4108 467.047 79.4755 463.018 68.4488 463.018Z" fill="#16A395"/>
<path d="M69.2687 467.113C63.0253 467.337 53.3183 468.656 49.1006 474.216C51.2533 478.162 59.0926 481.069 68.4576 481.069C77.9278 481.069 85.8416 478.083 87.8891 474.084C83.816 468.709 75.8891 466.872 69.2687 467.113Z" fill="#615699"/>
<path d="M74.2186 354.943C84.2106 351.309 83.4828 355.123 83.4828 355.123C83.4828 355.123 70.2332 355.838 69.7378 367.961C69.2423 380.083 74.0915 397.204 77.3359 416.732C80.5803 436.26 82.3691 464.43 79.1773 474.417C77.7831 474.795 75.7707 475.623 73.938 473.541C75.17 468.279 76.3538 461.12 76.2968 445.007C76.2398 428.294 71.4214 402.365 67.607 385.38C63.7926 368.395 65.2569 358.21 74.2186 354.943Z" fill="#16A395"/>
<path d="M54.3925 369.368C54.9361 368.728 57.2599 370.017 58.0534 369.609C64.5511 373.165 67.5982 391.706 65.0947 404.509C62.4641 417.85 59.2854 438.198 59.6055 451.246C59.908 463.825 60.991 469.393 62.0651 473.475C60.6797 475.123 59.0925 474.523 57.9921 474.255C55.2869 466.53 56.0673 444.499 58.1762 429.18C60.2851 413.861 63.5865 400.401 63.0516 390.939C62.3677 378.843 56.5627 371.472 54.3925 369.368Z" fill="#16A395"/>
<path d="M74.9903 356.539C72.5043 354.299 69.4616 361.362 68.7952 365.063C67.0414 359.223 63.6084 351.318 72.5043 348.608C74.7535 346.512 78.4627 345.381 81.8606 344.706C86.8325 343.719 97.9731 343.022 104.708 347.95C100.937 347.735 97.0568 346.911 95.3732 348.533C93.5844 350.256 96.2501 351.699 98.0038 352.067C100.012 352.506 103.401 352.208 105.37 351.966C108.272 351.706 111.198 351.935 114.024 352.646C117.313 354.838 122.578 360.126 123.424 364.607C119.597 363.638 106.698 358.153 107.465 361.428C108.39 365.374 115.664 367.43 118.588 368.881C121.513 370.333 123.85 371.784 125.906 374.007C128.268 380.914 129.681 388.11 130.106 395.398C130.106 395.398 122.241 395.801 114.941 395.398C112.63 392.276 111.617 390.575 110.92 386.581C110.447 383.889 108.009 379.448 105.475 381.32C101.503 384.275 107.395 391.307 109.557 395.424C103.419 393.872 94.413 390.005 89.9191 387.221C88.5424 384.59 90.0374 379.329 90.1777 377.032C90.318 374.651 91.3659 371.608 88.573 370.841C84.1492 369.622 84.0659 378.575 84.0835 383.455C81.3038 381.758 73.7933 374.511 71.7371 369.469C73.4645 363.585 79.1247 360.262 74.9903 356.539Z" fill="#52C3C0"/>
<path d="M68.7952 365.063C67.0414 359.223 63.6084 351.318 72.5043 348.608C72.9954 348.17 82.15 349.634 89.7744 354.632C96.0309 358.745 101.568 363.813 106.812 369.14C112.617 375.037 118.396 381.061 123.359 387.69C125.297 390.268 127.195 392.951 129.278 395.433C127.085 395.525 120.829 395.722 114.949 395.398C112.639 392.276 111.626 390.575 110.929 386.581C110.455 383.889 108.018 379.448 105.484 381.32C101.511 384.275 107.404 391.307 109.565 395.424C103.427 393.872 94.4218 390.005 89.9278 387.221C88.5511 384.59 90.0462 379.329 90.1865 377.032C90.3268 374.651 91.3747 371.608 88.5818 370.841C84.158 369.622 84.0747 378.575 84.0922 383.455C81.3125 381.758 73.8021 374.511 71.7458 369.469C73.4645 363.576 79.1247 360.262 74.9903 356.531C72.5043 354.299 69.4616 361.362 68.7952 365.063ZM93.7159 370.468C94.3648 371.144 95.268 371.784 96.2501 371.556C96.7593 371.423 97.2078 371.12 97.5213 370.698C97.8347 370.275 97.9941 369.758 97.9731 369.232C97.9262 368.181 97.6042 367.16 97.0393 366.273C96.6776 365.092 96.0317 364.019 95.1584 363.147C94.5402 362.581 93.7028 362.064 92.8303 362.248C91.7824 362.467 91.3615 363.515 91.2344 364.462C90.945 366.54 92.3041 369.017 93.7159 370.468ZM80.2077 367.5C82.9917 370.043 85.7539 365.812 86.8807 363.642C88.0075 361.472 87.9812 357.596 84.8902 355.947C78.3443 352.471 76.3187 363.993 80.2077 367.5Z" fill="#34BDB3"/>
<path d="M123.442 387.861C123.442 387.861 116.633 376.927 109.114 370.271C101.595 363.616 95.2548 357.364 89.4061 353.654C79.7605 347.516 72.5043 348.608 72.5043 348.608C72.5043 348.608 82.2596 350.125 93.694 359.521C102.546 366.799 123.442 387.861 123.442 387.861Z" fill="#16A395"/>
<path d="M87.5778 345.947C91.9139 346.302 93.0188 350.419 91.0853 350.125C89.1518 349.831 85.447 349.174 83.1145 348.042C80.782 346.911 82.926 345.578 87.5778 345.947Z" fill="#71CBCC"/>
<path d="M99.648 354.202C103.734 354.273 106.746 354.496 107.43 356.246C108.114 357.995 105.387 359.551 101.498 358.775C97.6092 357.999 95.4697 356.246 95.2724 355.224C95.0751 354.202 97.4996 354.167 99.648 354.202Z" fill="#71CBCC"/>
<path d="M66.9712 477.109C66.6775 477.986 63.8276 478.201 63.3059 476.671C62.719 473.862 62.5359 470.983 62.7622 468.122C63.2007 461.107 66.0286 435.949 63.4637 426.11C60.8989 416.272 59.189 405.425 59.189 405.425L60.9953 404.886C60.9953 404.886 68.4488 419.188 68.4488 432.994C68.4488 446.8 66.6643 461.9 66.6643 471.818C66.674 473.586 66.7764 475.352 66.9712 477.109Z" fill="#34BDB3"/>
<path d="M69.1635 415.641C68.1858 413.887 67.0195 412.361 65.9717 410.682C64.9852 409.09 64.5029 407.144 66.7915 406.587C70.4919 405.684 72.8946 407.797 74.2844 410.704C75.7751 405.802 75.5296 402.317 73.9074 401.115C67.3527 396.257 59.268 398.704 59.268 398.704C59.268 398.704 55.1335 391.614 50.0739 390.238C41.5156 387.866 36.0439 390.891 32.4488 396.205C33.2204 396.029 33.9745 395.88 34.6629 395.766C36.3815 395.437 40.003 394.618 41.3447 396.314C42.9143 398.292 40.1346 400.326 38.486 400.8C36.6709 401.317 34.7725 401.295 32.9179 401.545C31.6722 401.713 30.4516 402.033 29.2832 402.496C27.8915 406.384 26.8483 410.388 26.166 414.461C27.4566 412.991 28.9719 411.735 30.6556 410.739C32.5365 409.656 36.5175 408.034 37.9248 410.616C39.2051 412.971 36.6928 415.755 34.9391 416.952C33.1853 418.148 31.0721 418.797 29.3578 420.082C27.4857 421.476 26.2887 423.335 25.3855 425.343C25.4842 428.248 25.7374 431.146 26.144 434.024C28.2354 430.337 31.5105 426.794 34.584 428.925C36.25 430.078 35.1364 432.227 34.3516 433.568C33.3081 435.357 31.927 436.922 30.8002 438.654C29.6597 440.429 28.7562 442.345 28.1126 444.354C28.4721 445.84 28.7264 446.721 28.7264 446.721C28.7264 446.721 32.9486 447.506 39.0604 446.187C40.0118 444.056 40.4765 441.535 41.1298 439.483C41.6691 437.777 42.3706 434.48 44.3304 433.748C46.3911 432.976 47.9037 435.502 48.2763 437.185C48.6304 439.145 48.4795 441.162 47.8379 443.047C50.337 441.785 56.1682 437.071 58.7988 434.901C58.2245 429.14 52.8668 422.186 58.2815 419.389C62.2274 417.342 64.4722 422.458 64.63 428.237C67.0073 425.161 69.1277 421.896 70.9698 418.473C70.289 417.581 69.6847 416.634 69.1635 415.641Z" fill="#52C3C0"/>
<path d="M34.3077 440.11C37.1795 435.844 39.0428 430.933 41.2175 426.299C44.041 420.275 47.6274 415.005 51.5997 409.687C54.3048 406.083 56.5321 402.137 59.0794 398.419L59.2504 398.704C59.2504 398.704 67.3352 396.257 73.8898 401.115C75.512 402.317 75.7576 405.802 74.2669 410.704C72.877 407.797 70.4744 405.684 66.774 406.587C64.4853 407.144 64.9676 409.09 65.9541 410.682C67.002 412.361 68.1682 413.904 69.1459 415.641C69.6711 416.636 70.2783 417.587 70.9611 418.482C69.1189 421.905 66.9985 425.17 64.6213 428.246C64.4634 422.476 62.2055 417.351 58.2727 419.398C52.858 422.213 58.2157 429.149 58.79 434.91C56.1594 437.08 50.3457 441.793 47.8291 443.056C48.4707 441.171 48.6216 439.154 48.2676 437.194C47.8993 435.528 46.3867 432.985 44.3216 433.757C42.3618 434.489 41.6603 437.786 41.121 439.492C40.4678 441.543 40.003 444.064 39.0516 446.195C36.0196 446.875 32.903 447.099 29.805 446.857C31.0808 444.591 32.7206 442.473 34.3077 440.11Z" fill="#34BDB3"/>
<path d="M48.0877 423.857C45.3694 425.904 47.5397 428.68 49.3198 431.201C51.0998 433.722 53.2043 429.539 52.6738 426.084C52.1433 422.629 49.0655 423.12 48.0877 423.857Z" fill="#52C3C0"/>
<path d="M59.246 398.704C59.246 398.704 54.7214 404.316 49.7319 409.923C44.7425 415.531 41.9278 422.257 40.4809 426.913C39.3322 430.622 35.1145 439.189 35.1145 439.189C35.1145 439.189 39.911 432.271 42.0111 427.198C44.4882 421.226 47.9694 416.675 52.5029 410.603C55.2431 406.937 57.5088 402.939 59.246 398.704Z" fill="#16A395"/>
<path d="M58.7111 407.836C55.5149 407.858 55.1115 410.735 57.5536 413.058C59.9957 415.382 63.3147 416.684 62.6702 413.207C62.0257 409.73 60.8858 407.797 58.7111 407.836Z" fill="#52C3C0"/>
<path d="M50.9157 398.704C53.9585 398.23 54.8353 400.515 51.8803 402.619C49.1269 404.579 46.3954 406.938 42.546 405.964C38.6965 404.991 39.5865 402.501 42.546 401.413C45.5054 400.326 49.2979 398.958 50.9157 398.704Z" fill="#71CBCC"/>
<path d="M55.1335 370.091C57.6194 367.851 60.6621 374.914 61.3286 378.615C63.0604 372.775 66.5153 364.87 57.6194 362.16C55.3746 360.06 51.661 358.933 48.2631 358.258C43.2913 357.271 32.1506 356.574 25.4206 361.498C29.1911 361.288 33.0669 360.463 34.7549 362.086C36.5393 363.804 33.878 365.247 32.1024 365.619C30.0987 366.058 26.7052 365.76 24.7366 365.518C21.8333 365.252 18.9059 365.478 16.0775 366.185C12.7848 368.377 7.51919 373.66 6.67739 378.145C10.5006 377.172 23.3994 371.692 22.6321 374.967C21.707 378.913 14.4377 380.969 11.509 382.42C8.58021 383.871 6.24773 385.323 4.19146 387.546C1.83083 394.459 0.420771 401.661 0 408.954C0 408.954 7.86556 409.358 15.1699 408.954C17.4761 405.833 18.4889 404.132 19.186 400.137C19.6595 397.441 22.1016 393.004 24.6314 394.876C28.6036 397.831 22.711 404.864 20.5495 408.976C26.6877 407.429 35.6932 403.562 40.1915 400.778C41.5638 398.147 40.0688 392.886 39.9285 390.588C39.7882 388.208 38.7403 385.165 41.5375 384.393C45.957 383.174 46.0447 392.127 46.0227 397.011C48.8024 395.31 56.3129 388.063 58.3735 383.025C56.6505 377.146 50.9902 373.814 55.1335 370.091Z" fill="#52C3C0"/>
<path d="M61.3198 378.615C63.0516 372.775 66.5065 364.87 57.6106 362.16C57.1196 361.7 47.965 363.186 40.3406 368.184C34.0885 372.297 28.5467 377.365 23.303 382.692C17.498 388.585 11.7282 394.613 6.75635 401.26C4.82284 403.842 2.92002 406.521 0.837448 409.007C3.02963 409.099 9.28613 409.296 15.17 408.972C17.4761 405.85 18.4889 404.149 19.186 400.155C19.6595 397.459 22.1016 393.022 24.6314 394.894C28.6037 397.849 22.7111 404.881 20.5496 408.994C26.6877 407.446 35.6932 403.579 40.1916 400.795C41.5639 398.165 40.0688 392.903 39.9285 390.606C39.7882 388.225 38.7403 385.182 41.5376 384.411C45.957 383.192 46.0447 392.145 46.0228 397.029C48.8025 395.328 56.3129 388.08 58.3735 383.043C56.6505 377.15 50.9903 373.836 55.1247 370.105C57.6107 367.851 60.6534 374.91 61.3198 378.615ZM36.4122 384.021C35.7633 384.691 34.8645 385.336 33.8781 385.108C33.3693 384.974 32.9212 384.672 32.6079 384.249C32.2946 383.827 32.1348 383.31 32.155 382.784C32.2061 381.734 32.5278 380.714 33.0889 379.825C33.4484 378.647 34.093 377.576 34.9654 376.707C35.5836 376.142 36.421 375.62 37.2979 375.804C38.3414 376.023 38.7622 377.071 38.8894 378.023C39.17 380.092 37.8108 382.565 36.4122 384.021ZM49.9117 381.065C47.1232 383.604 44.3611 379.377 43.2343 377.207C42.1075 375.037 42.1338 371.157 45.2248 369.508C51.7707 366.023 53.8182 377.523 49.9117 381.065Z" fill="#34BDB3"/>
<path d="M6.67739 401.413C6.67739 401.413 13.4819 390.479 21.0011 383.823C28.5203 377.168 34.8645 370.916 40.7089 367.202C50.3545 361.064 57.6106 362.16 57.6106 362.16C57.6106 362.16 47.8554 363.673 36.421 373.073C27.5689 380.351 6.67739 401.413 6.67739 401.413Z" fill="#16A395"/>
<path d="M42.524 359.499C38.1923 359.85 37.083 363.971 39.0165 363.673C40.9501 363.375 44.6549 362.726 46.9873 361.594C49.3198 360.463 47.189 359.117 42.524 359.499Z" fill="#71CBCC"/>
<path d="M30.467 367.755C26.3852 367.825 23.3687 368.048 22.6891 369.798C22.0096 371.547 24.7279 373.103 28.6168 372.323C32.5057 371.543 34.6453 369.798 34.8426 368.776C35.0399 367.755 32.6153 367.715 30.467 367.755Z" fill="#71CBCC"/>
<path d="M75.9636 477C75.3105 477.227 74.5999 477.227 73.9468 477C73.5535 476.873 73.1744 476.705 72.8156 476.5C74.8539 467.77 76.1258 458.878 76.6169 449.926C77.1079 439.588 75.17 427.978 74.565 420.954C73.0831 403.855 84.9823 402.431 91.1861 404.89C96.2764 406.911 100.174 412.835 100.174 412.835L99.5647 414.15C99.5647 414.15 92.1726 404.811 83.4916 407.828C74.8105 410.844 80.3129 432.621 80.4883 445.507C80.6461 456.854 76.8668 473.256 75.9636 477Z" fill="#16A395"/>
<path d="M82.5709 424.392C83.6012 422.686 84.8113 421.178 85.903 419.53C86.9333 417.969 87.4726 416.022 85.2015 415.408C81.5274 414.404 79.0634 416.447 77.5946 419.315C76.2442 414.374 76.5862 410.892 78.2435 409.739C84.9341 405.07 92.9443 407.749 92.9443 407.749C92.9443 407.749 97.2804 400.791 102.353 399.541C110.977 397.419 116.348 400.598 119.807 406.013C119.04 405.815 118.29 405.649 117.615 405.495C115.91 405.114 112.314 404.18 110.925 405.85C109.298 407.784 112.016 409.897 113.652 410.414C115.454 410.984 117.348 411.015 119.198 411.322C120.438 411.523 121.648 411.877 122.802 412.374C124.082 416.3 125.011 420.332 125.577 424.422C124.325 422.919 122.846 421.62 121.193 420.573C119.343 419.437 115.41 417.701 113.928 420.244C112.582 422.559 115.015 425.418 116.734 426.663C118.453 427.908 120.544 428.618 122.223 429.947C124.051 431.398 125.178 433.292 126.046 435.335C125.861 438.234 125.525 441.122 125.038 443.986C123.052 440.241 119.877 436.607 116.743 438.65C115.046 439.755 116.098 441.934 116.843 443.302C117.834 445.112 119.176 446.721 120.25 448.484C121.342 450.295 122.191 452.243 122.776 454.276C122.372 455.749 122.096 456.621 122.096 456.621C122.096 456.621 117.848 457.288 111.78 455.793C110.903 453.636 110.495 451.106 109.903 449.036C109.408 447.313 108.803 443.999 106.865 443.21C104.826 442.381 103.243 444.876 102.827 446.533C102.417 448.482 102.508 450.503 103.09 452.408C100.626 451.093 94.9304 446.195 92.3787 443.955C93.1197 438.211 98.6747 431.429 93.3433 428.456C89.4675 426.299 87.0649 431.359 86.7448 437.124C84.4565 433.982 82.43 430.658 80.6856 427.185C81.3913 426.308 82.022 425.374 82.5709 424.392Z" fill="#34BDB3"/>
<path d="M102.353 399.541C110.977 397.419 116.348 400.598 119.807 406.013C119.04 405.815 118.29 405.649 117.615 405.495C115.91 405.114 112.314 404.18 110.925 405.85C109.298 407.784 112.016 409.897 113.652 410.414C115.454 410.984 117.348 411.015 119.198 411.322C120.438 411.523 121.648 411.877 122.802 412.374C124.082 416.3 125.011 420.332 125.577 424.422C124.325 422.919 122.846 421.62 121.193 420.573C119.343 419.437 115.41 417.701 113.928 420.244C112.582 422.559 115.015 425.418 116.734 426.663C118.453 427.908 120.544 428.618 122.223 429.947C124.051 431.398 125.178 433.292 126.046 435.335C125.861 438.234 125.525 441.122 125.038 443.986C123.052 440.241 119.877 436.607 116.743 438.65C115.046 439.755 116.098 441.934 116.843 443.302C117.834 445.112 119.176 446.721 120.25 448.484C121.342 450.295 122.191 452.243 122.776 454.276C122.447 455.477 122.206 456.266 122.127 456.525C119.823 454.185 117.746 451.632 115.923 448.9C111.924 442.854 110.359 435.664 106.637 429.438C103.603 424.361 100.06 419.626 96.8727 414.659C95.1408 411.962 94.3604 409.573 92.953 407.749C94.3648 405.771 98.4905 400.497 102.353 399.541ZM112.696 432.862C113.88 433.739 118.996 436.164 118.61 433.511C118.387 431.981 117.545 429.793 116.813 428.969C115.362 427.347 112.183 424.975 110.32 427.408C108.794 429.412 111.192 431.771 112.696 432.876V432.862ZM99.512 415.246C100.696 416.759 102.581 417.263 104.418 417.381C106.523 417.521 113.297 417.421 112.008 413.562C111.451 411.905 104.861 410.331 102.664 410.958C99.4419 411.879 98.5387 414.018 99.512 415.246Z" fill="#52C3C0"/>
<path d="M103.383 433.209C106.045 435.335 103.796 438.062 101.941 440.513C100.086 442.964 98.1047 438.759 98.736 435.3C99.3674 431.841 102.428 432.446 103.383 433.209Z" fill="#52C3C0"/>
<path d="M92.9443 407.749C92.9443 407.749 97.3286 413.483 102.151 419.236C106.974 424.988 109.605 431.784 110.92 436.48C111.964 440.219 115.936 448.9 115.936 448.9C115.936 448.9 111.341 441.846 109.381 436.716C107.075 430.675 103.73 426.01 99.3718 419.828C96.7284 416.089 94.5687 412.03 92.9443 407.749Z" fill="#16A395"/>
<path d="M93.2249 416.868C96.4167 416.982 96.7324 419.867 94.2289 422.129C91.7254 424.392 88.367 425.593 89.1123 422.129C89.8577 418.666 91.0458 416.789 93.2249 416.868Z" fill="#52C3C0"/>
<path d="M100.174 458.879C100.174 458.879 86.8105 447.48 80.1595 441.916C73.5084 436.352 70.0754 436.909 68.2822 442.6C66.489 448.291 69.3651 457.884 69.751 463.847C70.1368 469.81 68.4357 479.731 68.4357 479.731L71.1583 479.324C71.1583 479.324 73.9293 468.56 72.8025 461.536C71.6757 454.512 70.1938 444.043 71.1583 441.916C72.8025 438.29 78.226 442.688 78.226 442.688C78.226 442.688 85.6136 453.276 88.994 455.679C93.7159 459.015 100.174 458.879 100.174 458.879Z" fill="#52C3C0"/>
</g>
<path d="M390 72C392.829 72 395.143 74.3143 395.143 77.1429C395.143 79.9714 392.829 82.2857 390 82.2857C387.171 82.2857 384.857 79.9714 384.857 77.1429C384.857 74.3143 387.171 72 390 72ZM390 25.7143C392.829 25.7143 395.143 28.0286 395.143 30.8572C395.143 33.6857 392.829 36 390 36C387.171 36 384.857 33.6857 384.857 30.8572C384.857 28.0286 387.171 25.7143 390 25.7143ZM374.571 64.2857C377.4 64.2857 379.714 66.6 379.714 69.4286C379.714 72.2572 377.4 74.5714 374.571 74.5714C371.743 74.5714 369.429 72.2572 369.429 69.4286C369.429 66.6 371.743 64.2857 374.571 64.2857ZM366.857 48.8572C369.686 48.8572 372 51.1714 372 54C372 56.8286 369.686 59.1429 366.857 59.1429C364.029 59.1429 361.714 56.8286 361.714 54C361.714 51.1714 364.029 48.8572 366.857 48.8572ZM374.571 33.4286C377.4 33.4286 379.714 35.7429 379.714 38.5714C379.714 41.4 377.4 43.7143 374.571 43.7143C371.743 43.7143 369.429 41.4 369.429 38.5714C369.429 35.7429 371.743 33.4286 374.571 33.4286ZM405.429 64.2857C408.257 64.2857 410.571 66.6 410.571 69.4286C410.571 72.2572 408.257 74.5714 405.429 74.5714C402.6 74.5714 400.286 72.2572 400.286 69.4286C400.286 66.6 402.6 64.2857 405.429 64.2857ZM413.143 48.8572C415.971 48.8572 418.286 51.1714 418.286 54C418.286 56.8286 415.971 59.1429 413.143 59.1429C410.314 59.1429 408 56.8286 408 54C408 51.1714 410.314 48.8572 413.143 48.8572ZM405.429 33.4286C408.257 33.4286 410.571 35.7429 410.571 38.5714C410.571 41.4 408.257 43.7143 405.429 43.7143C402.6 43.7143 400.286 41.4 400.286 38.5714C400.286 35.7429 402.6 33.4286 405.429 33.4286Z" fill="#E3EFFA"/>
<path d="M390 85.5C394.95 85.5 399 89.55 399 94.5C399 99.45 394.95 103.5 390 103.5C385.05 103.5 381 99.45 381 94.5C381 89.55 385.05 85.5 390 85.5ZM390 4.5C394.95 4.5 399 8.55 399 13.5C399 18.45 394.95 22.5 390 22.5C385.05 22.5 381 18.45 381 13.5C381 8.55 385.05 4.5 390 4.5ZM363 72C367.95 72 372 76.05 372 81C372 85.95 367.95 90 363 90C358.05 90 354 85.95 354 81C354 76.05 358.05 72 363 72ZM349.5 45C354.45 45 358.5 49.05 358.5 54C358.5 58.95 354.45 63 349.5 63C344.55 63 340.5 58.95 340.5 54C340.5 49.05 344.55 45 349.5 45ZM363 18C367.95 18 372 22.05 372 27C372 31.95 367.95 36 363 36C358.05 36 354 31.95 354 27C354 22.05 358.05 18 363 18ZM417 72C421.95 72 426 76.05 426 81C426 85.95 421.95 90 417 90C412.05 90 408 85.95 408 81C408 76.05 412.05 72 417 72ZM430.5 45C435.45 45 439.5 49.05 439.5 54C439.5 58.95 435.45 63 430.5 63C425.55 63 421.5 58.95 421.5 54C421.5 49.05 425.55 45 430.5 45ZM417 18C421.95 18 426 22.05 426 27C426 31.95 421.95 36 417 36C412.05 36 408 31.95 408 27C408 22.05 412.05 18 417 18Z" fill="#E3EFFA"/>
<defs>
<clipPath id="clip0_109_3">
<rect width="442" height="432" fill="white" transform="translate(49 99)"/>
</clipPath>
<clipPath id="clip1_109_3">
<rect width="130.115" height="167.86" fill="white" transform="translate(0 344)"/>
</clipPath>
</defs>
</svg>
