<svg width="399" height="261" viewBox="0 0 399 261" fill="none" xmlns="http://www.w3.org/2000/svg">
<g clip-path="url(#clip0_83_5)">
<path d="M129.923 238.305C108.609 238.199 87.8053 231.774 70.142 219.84C52.4786 207.907 38.7491 191.002 30.6894 171.263C22.6297 151.524 20.6019 129.837 24.8623 108.945C29.1227 88.0527 39.4801 68.8935 54.6247 53.89C69.7693 38.8865 89.021 28.7125 109.945 24.6544C130.87 20.5963 152.527 22.8363 172.179 31.0913C191.831 39.3463 208.595 53.2456 220.35 71.0315C232.106 88.8173 238.326 109.691 238.224 131.013C238.053 159.598 226.554 186.948 206.251 207.063C185.947 227.177 158.497 238.413 129.923 238.305ZM130.924 34.2898C111.907 34.1973 93.2892 39.7482 77.4257 50.2407C61.5622 60.7332 49.1652 75.696 41.8021 93.2369C34.4391 110.778 32.4408 130.109 36.06 148.786C39.6792 167.463 48.7533 184.647 62.1348 198.165C75.5163 211.683 92.6042 220.928 111.238 224.73C129.871 228.533 149.213 226.722 166.818 219.528C184.423 212.333 199.5 200.077 210.143 184.311C220.785 168.544 226.515 149.974 226.608 130.95C226.699 105.447 216.675 80.9501 198.735 62.8316C180.795 44.7132 156.403 34.4533 130.911 34.3024L130.924 34.2898Z" fill="url(#paint0_linear_83_5)"/>
<path d="M129.809 260.987C95.2358 260.776 62.1568 246.86 37.8237 222.289C13.4905 197.718 -0.111321 164.498 -2.42374e-05 129.911H10.0067C9.88675 153.743 16.8341 177.076 29.9702 196.958C43.1063 216.84 61.8411 232.379 83.8052 241.609C105.769 250.84 129.976 253.346 153.365 248.813C176.753 244.28 198.272 232.91 215.201 216.141C232.13 199.372 243.708 177.958 248.47 154.606C253.233 131.254 250.966 107.014 241.957 84.9514C232.949 62.8884 217.602 43.9935 197.858 30.6563C178.114 17.3191 154.861 10.1388 131.038 10.0232V0.0124512C148.171 0.0956548 165.12 3.55404 180.917 10.1901C196.714 16.8262 211.05 26.51 223.107 38.6886C235.163 50.8673 244.703 65.3022 251.183 81.1694C257.663 97.0365 260.955 114.025 260.872 131.165C260.789 148.305 257.332 165.261 250.698 181.064C244.065 196.868 234.385 211.209 222.211 223.27C210.037 235.331 195.608 244.875 179.747 251.358C163.886 257.84 146.904 261.134 129.771 261.05L129.809 260.987Z" fill="url(#paint1_linear_83_5)"/>
<path d="M238.502 240.408L231.46 233.287C258.505 206.438 273.8 169.952 273.987 131.835C274.175 93.7179 259.24 57.0832 232.46 29.9687L239.579 22.9232C268.219 51.9304 284.19 91.1173 283.988 131.888C283.786 172.66 267.428 211.686 238.502 240.408Z" fill="url(#paint2_linear_83_5)"/>
<path d="M333.87 118.671L279.707 118.405V117.404L333.87 117.67V118.671Z" fill="url(#paint3_linear_83_5)"/>
<path d="M253.321 160.263L253.316 161.264L362.362 161.798L362.367 160.796L253.321 160.263Z" fill="url(#paint4_linear_83_5)"/>
<path d="M207.136 198.458L207.131 199.459L392.164 200.363L392.169 199.362L207.136 198.458Z" fill="url(#paint5_linear_83_5)"/>
<path d="M327.955 118.633C327.96 117.463 328.312 116.32 328.966 115.35C329.62 114.379 330.547 113.625 331.63 113.181C332.713 112.738 333.903 112.626 335.049 112.859C336.196 113.093 337.247 113.661 338.071 114.492C338.895 115.323 339.454 116.38 339.677 117.529C339.9 118.678 339.778 119.867 339.326 120.946C338.873 122.026 338.111 122.947 337.136 123.593C336.16 124.239 335.015 124.581 333.845 124.576C333.068 124.573 332.3 124.416 331.583 124.116C330.867 123.815 330.217 123.377 329.67 122.825C329.123 122.273 328.69 121.619 328.396 120.899C328.101 120.18 327.952 119.41 327.955 118.633Z" fill="url(#paint6_linear_83_5)"/>
<path d="M356.468 160.5C356.473 159.33 356.825 158.187 357.479 157.217C358.133 156.247 359.06 155.492 360.143 155.049C361.226 154.606 362.416 154.493 363.562 154.727C364.709 154.96 365.76 155.528 366.584 156.359C367.408 157.19 367.966 158.247 368.19 159.396C368.413 160.545 368.291 161.734 367.839 162.814C367.386 163.893 366.624 164.814 365.649 165.46C364.673 166.106 363.528 166.448 362.358 166.443C361.581 166.442 360.811 166.287 360.094 165.987C359.377 165.687 358.726 165.248 358.179 164.696C357.632 164.144 357.199 163.489 356.905 162.769C356.611 162.049 356.463 161.278 356.468 160.5Z" fill="url(#paint7_linear_83_5)"/>
<path d="M386.26 199.846C386.265 198.676 386.617 197.533 387.271 196.563C387.925 195.592 388.852 194.838 389.935 194.395C391.018 193.951 392.208 193.839 393.354 194.073C394.501 194.306 395.552 194.874 396.376 195.705C397.2 196.536 397.759 197.593 397.982 198.742C398.205 199.891 398.083 201.08 397.631 202.16C397.178 203.239 396.416 204.16 395.441 204.806C394.465 205.452 393.32 205.794 392.15 205.789C391.373 205.786 390.605 205.63 389.888 205.329C389.172 205.029 388.522 204.59 387.975 204.038C387.428 203.486 386.995 202.832 386.701 202.113C386.406 201.393 386.257 200.623 386.26 199.846Z" fill="url(#paint8_linear_83_5)"/>
<path d="M174.168 106.633H166.758V97.129C166.758 77.8806 150.696 62.2057 130.962 62.2057C111.227 62.2057 95.178 77.8806 95.178 97.129V106.633H88.452C86.5818 106.636 84.7892 107.381 83.4668 108.704C82.1443 110.027 81.3999 111.82 81.3966 113.691V182.6C81.3999 184.471 82.1443 186.264 83.4668 187.587C84.7892 188.91 86.5818 189.655 88.452 189.658H174.168C176.038 189.655 177.831 188.91 179.153 187.587C180.476 186.264 181.22 184.471 181.223 182.6V113.691C181.22 111.82 180.476 110.027 179.153 108.704C177.831 107.381 176.038 106.636 174.168 106.633ZM138.372 158.587C138.295 160.409 137.517 162.13 136.201 163.392C134.885 164.654 133.133 165.359 131.31 165.359C129.487 165.359 127.735 164.654 126.419 163.392C125.103 162.13 124.325 160.409 124.248 158.587V137.666C124.325 135.844 125.103 134.122 126.419 132.861C127.735 131.599 129.487 130.894 131.31 130.894C133.133 130.894 134.885 131.599 136.201 132.861C137.517 134.122 138.295 135.844 138.372 137.666V158.587ZM152.634 106.633H109.289V97.129C109.289 85.6611 119.017 76.3347 130.962 76.3347C142.906 76.3347 152.634 85.6611 152.634 97.129V106.633Z" fill="url(#paint9_linear_83_5)"/>
</g>
<defs>
<linearGradient id="paint0_linear_83_5" x1="332.126" y1="334.206" x2="-48.108" y2="-49.6108" gradientUnits="userSpaceOnUse">
<stop stop-color="#73A6D9"/>
<stop offset="0.95" stop-color="#A3DCE9"/>
<stop offset="1" stop-color="#A4DCE9"/>
</linearGradient>
<linearGradient id="paint1_linear_83_5" x1="332.126" y1="334.206" x2="-48.108" y2="-49.5984" gradientUnits="userSpaceOnUse">
<stop stop-color="#73A6D9"/>
<stop offset="0.95" stop-color="#A3DCE9"/>
<stop offset="1" stop-color="#A4DCE9"/>
</linearGradient>
<linearGradient id="paint2_linear_83_5" x1="256.689" y1="352.865" x2="259.322" y2="-187.514" gradientUnits="userSpaceOnUse">
<stop stop-color="#73A6D9"/>
<stop offset="0.95" stop-color="#A3DCE9"/>
<stop offset="1" stop-color="#A4DCE9"/>
</linearGradient>
<linearGradient id="paint3_linear_83_5" x1="414.365" y1="226.707" x2="70.9771" y2="-119.917" gradientUnits="userSpaceOnUse">
<stop stop-color="#73A6D9"/>
<stop offset="0.95" stop-color="#A3DCE9"/>
<stop offset="1" stop-color="#A4DCE9"/>
</linearGradient>
<linearGradient id="paint4_linear_83_5" x1="439.315" y1="293.874" x2="-40.3136" y2="-190.282" gradientUnits="userSpaceOnUse">
<stop stop-color="#73A6D9"/>
<stop offset="0.95" stop-color="#A3DCE9"/>
<stop offset="1" stop-color="#A4DCE9"/>
</linearGradient>
<linearGradient id="paint5_linear_83_5" x1="434.47" y1="335.642" x2="-96.4051" y2="-200.243" gradientUnits="userSpaceOnUse">
<stop stop-color="#73A6D9"/>
<stop offset="0.95" stop-color="#A3DCE9"/>
<stop offset="1" stop-color="#A4DCE9"/>
</linearGradient>
<linearGradient id="paint6_linear_83_5" x1="342.724" y1="127.592" x2="303.041" y2="87.5351" gradientUnits="userSpaceOnUse">
<stop stop-color="#73A6D9"/>
<stop offset="0.95" stop-color="#A3DCE9"/>
<stop offset="1" stop-color="#A4DCE9"/>
</linearGradient>
<linearGradient id="paint7_linear_83_5" x1="371.235" y1="169.46" x2="331.552" y2="129.403" gradientUnits="userSpaceOnUse">
<stop stop-color="#73A6D9"/>
<stop offset="0.95" stop-color="#A3DCE9"/>
<stop offset="1" stop-color="#A4DCE9"/>
</linearGradient>
<linearGradient id="paint8_linear_83_5" x1="401.025" y1="208.8" x2="361.343" y2="168.743" gradientUnits="userSpaceOnUse">
<stop stop-color="#73A6D9"/>
<stop offset="0.95" stop-color="#A3DCE9"/>
<stop offset="1" stop-color="#A4DCE9"/>
</linearGradient>
<linearGradient id="paint9_linear_83_5" x1="-30.0202" y1="-19.9199" x2="182.181" y2="192.198" gradientUnits="userSpaceOnUse">
<stop stop-color="#73A6D9"/>
<stop offset="0.95" stop-color="#A3DCE9"/>
<stop offset="1" stop-color="#A4DCE9"/>
</linearGradient>
<clipPath id="clip0_83_5">
<rect width="398.091" height="261" fill="white"/>
</clipPath>
</defs>
</svg>
